SplineFontDB: 3.0
FontName: Awoof-Mono-Regular
FullName: Awoof Mono
FamilyName: Awoof
Weight: Regular
Copyright: 
Version: 001.000
ItalicAngle: 0
UnderlinePosition: -153.6
UnderlineWidth: 61.44
Ascent: 819
Descent: 205
InvalidEm: 0
sfntRevision: 0x00010000
LayerCount: 2
Layer: 0 1 "Back" 1
Layer: 1 1 "Fore" 0
XUID: [1021 740 1079781356 11858757]
StyleMap: 0x0040
FSType: 0
OS2Version: 4
OS2_WeightWidthSlopeOnly: 0
OS2_UseTypoMetrics: 0
CreationTime: 1513646632
ModificationTime: 1513967361
PfmFamily: 17
TTFWeight: 400
TTFWidth: 5
LineGap: 92
VLineGap: 0
Panose: 2 0 5 3 0 0 0 0 0 0
OS2TypoAscent: 819
OS2TypoAOffset: 0
OS2TypoDescent: -205
OS2TypoDOffset: 0
OS2TypoLinegap: 92
OS2WinAscent: 737
OS2WinAOffset: 0
OS2WinDescent: 25
OS2WinDOffset: 0
HheadAscent: 737
HheadAOffset: 0
HheadDescent: -25
HheadDOffset: 0
OS2SubXSize: 666
OS2SubYSize: 717
OS2SubXOff: 0
OS2SubYOff: 143
OS2SupXSize: 666
OS2SupYSize: 717
OS2SupXOff: 0
OS2SupYOff: 492
OS2StrikeYSize: 50
OS2StrikeYPos: 264
OS2CapHeight: 666
OS2XHeight: 436
OS2Vendor: 'CLGR'
OS2CodePages: 00000001.00000000
OS2UnicodeRanges: 00000003.00000000.00000000.00000000
MarkAttachClasses: 1
DEI: 91125
TtTable: fpgm
PUSHB_1
 0
FDEF
PUSHB_1
 0
SZP0
MPPEM
PUSHB_1
 42
LT
IF
PUSHB_1
 74
SROUND
EIF
PUSHB_1
 0
SWAP
MIAP[rnd]
RTG
PUSHB_1
 6
CALL
IF
RTDG
EIF
MPPEM
PUSHB_1
 42
LT
IF
RDTG
EIF
DUP
MDRP[rp0,rnd,grey]
PUSHB_1
 1
SZP0
MDAP[no-rnd]
RTG
ENDF
PUSHB_1
 1
FDEF
DUP
MDRP[rp0,min,white]
PUSHB_1
 12
CALL
ENDF
PUSHB_1
 2
FDEF
MPPEM
GT
IF
RCVT
SWAP
EIF
POP
ENDF
PUSHB_1
 3
FDEF
ROUND[Black]
RTG
DUP
PUSHB_1
 64
LT
IF
POP
PUSHB_1
 64
EIF
ENDF
PUSHB_1
 4
FDEF
PUSHB_1
 6
CALL
IF
POP
SWAP
POP
ROFF
IF
MDRP[rp0,min,rnd,black]
ELSE
MDRP[min,rnd,black]
EIF
ELSE
MPPEM
GT
IF
IF
MIRP[rp0,min,rnd,black]
ELSE
MIRP[min,rnd,black]
EIF
ELSE
SWAP
POP
PUSHB_1
 5
CALL
IF
PUSHB_1
 70
SROUND
EIF
IF
MDRP[rp0,min,rnd,black]
ELSE
MDRP[min,rnd,black]
EIF
EIF
EIF
RTG
ENDF
PUSHB_1
 5
FDEF
GFV
NOT
AND
ENDF
PUSHB_1
 6
FDEF
PUSHB_2
 34
 1
GETINFO
LT
IF
PUSHB_1
 32

StartChar: .notdef
Encoding: 65536 -1 0
Width: 372
Flags: W
LayerCount: 2
Fore
SplineSet
34 0 m 1,0,-1
 34 682 l 1,1,-1
 305 682 l 1,2,-1
 305 0 l 1,3,-1
 34 0 l 1,0,-1
68 34 m 1,4,-1
 271 34 l 1,5,-1
 271 648 l 1,6,-1
 68 648 l 1,7,-1
 68 34 l 1,4,-1
EndSplineSet
Validated: 1
EndChar

StartChar: exclam
Encoding: 33 33 3
Width: 525
Flags: W
LayerCount: 2
Fore
SplineSet
198 231 m 1,0,-1
 328 231 l 1,1,-1
 328 102 l 1,2,-1
 198 102 l 5,3,-1
 198 231 l 1,0,-1
200 691 m 1,4,-1
 326 691 l 1,5,-1
 326 281 l 1,6,-1
 200 281 l 1,7,-1
 200 691 l 1,4,-1
EndSplineSet
Validated: 1
EndChar

StartChar: quotedbl
Encoding: 34 34 4
Width: 525
Flags: W
LayerCount: 2
Fore
SplineSet
286 692 m 5,0,-1
 364 692 l 5,1,-1
 364 512 l 5,2,-1
 286 512 l 5,3,-1
 286 692 l 5,0,-1
160 692 m 5,4,-1
 236 692 l 5,5,-1
 236 512 l 5,6,-1
 160 512 l 5,7,-1
 160 692 l 5,4,-1
EndSplineSet
Validated: 1
EndChar

StartChar: numbersign
Encoding: 35 35 5
Width: 525
Flags: W
LayerCount: 2
Fore
SplineSet
296 314 m 1,0,-1
 296 474 l 1,1,-1
 228 474 l 1,2,-1
 228 314 l 1,3,-1
 296 314 l 1,0,-1
156 548 m 1,4,-1
 156 640 l 1,5,-1
 228 640 l 1,6,-1
 228 548 l 1,7,-1
 296 548 l 1,8,-1
 296 640 l 1,9,-1
 368 640 l 1,10,-1
 368 548 l 1,11,-1
 462 548 l 1,12,-1
 462 474 l 1,13,-1
 368 474 l 1,14,-1
 368 314 l 1,15,-1
 462 314 l 1,16,-1
 462 242 l 1,17,-1
 368 242 l 1,18,-1
 368 150 l 1,19,-1
 296 150 l 1,20,-1
 296 242 l 1,21,-1
 228 242 l 1,22,-1
 228 150 l 1,23,-1
 156 150 l 1,24,-1
 156 242 l 1,25,-1
 64 242 l 1,26,-1
 64 314 l 1,27,-1
 156 314 l 1,28,-1
 156 474 l 1,29,-1
 64 474 l 1,30,-1
 64 548 l 1,31,-1
 156 548 l 1,4,-1
EndSplineSet
Validated: 1
EndChar

StartChar: dollar
Encoding: 36 36 6
Width: 525
Flags: W
LayerCount: 2
Fore
SplineSet
228 592 m 1,0,-1
 228 672 l 1,1,-1
 298 672 l 1,2,-1
 298 592 l 1,3,-1
 404 592 l 1,4,-1
 404 557 l 1,5,-1
 438 557 l 1,6,-1
 438 487 l 1,7,-1
 368 487 l 1,8,-1
 368 522 l 1,9,-1
 298 522 l 1,10,-1
 298 432 l 1,11,-1
 404 432 l 1,12,-1
 404 397 l 1,13,-1
 438 397 l 1,14,-1
 438 217 l 1,15,-1
 404 217 l 1,16,-1
 404 182 l 1,17,-1
 298 182 l 1,18,-1
 298 103 l 1,19,-1
 228 103 l 1,20,-1
 228 183 l 1,21,-1
 124 183 l 1,22,-1
 124 217 l 1,23,-1
 88 217 l 1,24,-1
 88 287 l 1,25,-1
 158 287 l 1,26,-1
 158 252 l 1,27,-1
 228 252 l 1,28,-1
 228 362 l 1,29,-1
 124 362 l 1,30,-1
 124 397 l 1,31,-1
 88 397 l 1,32,-1
 88 557 l 1,33,-1
 124 557 l 1,34,-1
 124 592 l 1,35,-1
 228 592 l 1,0,-1
158 432 m 1,36,-1
 228 432 l 1,37,-1
 228 522 l 1,38,-1
 158 522 l 1,39,-1
 158 432 l 1,36,-1
298 252 m 1,40,-1
 368 252 l 1,41,-1
 368 362 l 1,42,-1
 298 362 l 1,43,-1
 298 252 l 1,40,-1
EndSplineSet
Validated: 1
EndChar

StartChar: percent
Encoding: 37 37 7
Width: 525
Flags: W
LayerCount: 2
Fore
SplineSet
50 584 m 1,0,-1
 50 627 l 5,1,-1
 173 627 l 1,2,-1
 173 584 l 1,3,-1
 224 584 l 1,4,-1
 224 474 l 1,5,-1
 173 474 l 1,6,-1
 173 428 l 1,7,-1
 50 428 l 1,8,-1
 50 474 l 1,9,-1
 4 474 l 1,10,-1
 4 584 l 1,11,-1
 50 584 l 1,0,-1
145 568 m 1,12,-1
 76 568 l 1,13,-1
 76 500 l 1,14,-1
 145 500 l 1,15,-1
 145 568 l 1,12,-1
350 314 m 1,16,-1
 350 360 l 1,17,-1
 472 360 l 1,18,-1
 472 314 l 1,19,-1
 520 314 l 1,20,-1
 520 208 l 1,21,-1
 472 208 l 1,22,-1
 472 162 l 1,23,-1
 350 162 l 1,24,-1
 350 208 l 1,25,-1
 299 208 l 1,26,-1
 299 314 l 1,27,-1
 350 314 l 1,16,-1
448 288 m 1,28,-1
 378 288 l 1,29,-1
 378 233 l 1,30,-1
 448 233 l 1,31,-1
 448 288 l 1,28,-1
76 208 m 1,32,-1
 76 162 l 1,33,-1
 4 162 l 1,34,-1
 4 233 l 1,35,-1
 50 233 l 1,36,-1
 50 274 l 1,37,-1
 98 274 l 1,38,-1
 98 314 l 1,39,-1
 145 314 l 1,40,-1
 145 360 l 1,41,-1
 197 360 l 1,42,-1
 197 406 l 1,43,-1
 248 406 l 1,44,-1
 248 454 l 1,45,-1
 299 454 l 1,46,-1
 299 500 l 1,47,-1
 350 500 l 1,48,-1
 350 548 l 1,49,-1
 402 548 l 1,50,-1
 402 586 l 1,51,-1
 448 586 l 1,52,-1
 448 627 l 1,53,-1
 520 627 l 1,54,-1
 520 563 l 1,55,-1
 472 563 l 1,56,-1
 472 522 l 1,57,-1
 426 522 l 1,58,-1
 426 474 l 1,59,-1
 378 474 l 1,60,-1
 378 428 l 1,61,-1
 327 428 l 1,62,-1
 327 382 l 1,63,-1
 275 382 l 1,64,-1
 275 336 l 1,65,-1
 224 336 l 1,66,-1
 224 288 l 1,67,-1
 173 288 l 1,68,-1
 173 249 l 1,69,-1
 122 249 l 1,70,-1
 122 208 l 1,71,-1
 76 208 l 1,32,-1
EndSplineSet
Validated: 1
EndChar

StartChar: ampersand
Encoding: 38 38 8
Width: 525
Flags: W
LayerCount: 2
Fore
SplineSet
228 738 m 1,0,-1
 298 738 l 1,1,-1
 298 620 l 1,2,-1
 228 620 l 1,3,-1
 228 738 l 1,0,-1
234 180 m 1,4,-1
 304 180 l 1,5,-1
 304 62 l 1,6,-1
 234 62 l 1,7,-1
 234 180 l 1,4,-1
346 552 m 1,8,-1
 392 552 l 1,9,-1
 392 482 l 1,10,-1
 320 482 l 1,11,-1
 320 528 l 1,12,-1
 204 528 l 1,13,-1
 204 458 l 1,14,-1
 346 458 l 1,15,-1
 346 388 l 1,16,-1
 204 388 l 1,17,-1
 204 274 l 5,18,-1
 320 274 l 1,19,-1
 320 320 l 1,20,-1
 392 320 l 1,21,-1
 392 248 l 1,22,-1
 346 248 l 1,23,-1
 346 202 l 1,24,-1
 186 202 l 1,25,-1
 186 248 l 1,26,-1
 140 248 l 1,27,-1
 140 415 l 1,28,-1
 180 415 l 1,29,-1
 180 434 l 1,30,-1
 134 434 l 1,31,-1
 134 552 l 1,32,-1
 180 552 l 1,33,-1
 180 600 l 1,34,-1
 346 600 l 1,35,-1
 346 552 l 1,8,-1
EndSplineSet
Validated: 1
EndChar

StartChar: quotesingle
Encoding: 39 39 9
Width: 525
Flags: W
LayerCount: 2
Fore
SplineSet
226 686 m 1,0,-1
 298 686 l 1,1,-1
 298 520 l 5,2,-1
 226 520 l 1,3,-1
 226 686 l 1,0,-1
EndSplineSet
Validated: 1
EndChar

StartChar: parenleft
Encoding: 40 40 10
Width: 525
Flags: W
LayerCount: 2
Fore
SplineSet
322 98 m 1,0,-1
 368 98 l 1,1,-1
 368 28 l 1,2,-1
 296 28 l 1,3,-1
 296 74 l 1,4,-1
 250 74 l 1,5,-1
 250 120 l 1,6,-1
 202 120 l 1,7,-1
 202 166 l 1,8,-1
 156 166 l 1,9,-1
 156 518 l 1,10,-1
 202 518 l 1,11,-1
 202 564 l 1,12,-1
 250 564 l 1,13,-1
 250 610 l 1,14,-1
 296 610 l 1,15,-1
 296 658 l 5,16,-1
 368 658 l 1,17,-1
 368 586 l 1,18,-1
 322 586 l 1,19,-1
 322 540 l 1,20,-1
 276 540 l 1,21,-1
 276 492 l 1,22,-1
 228 492 l 1,23,-1
 228 192 l 1,24,-1
 276 192 l 1,25,-1
 276 146 l 1,26,-1
 322 146 l 1,27,-1
 322 98 l 1,0,-1
EndSplineSet
Validated: 1
EndChar

StartChar: parenright
Encoding: 41 41 11
Width: 525
Flags: W
LayerCount: 2
Fore
SplineSet
156 658 m 5,0,-1
 228 658 l 1,1,-1
 228 610 l 1,2,-1
 276 610 l 1,3,-1
 276 564 l 1,4,-1
 322 564 l 1,5,-1
 322 518 l 1,6,-1
 368 518 l 1,7,-1
 368 166 l 1,8,-1
 322 166 l 1,9,-1
 322 120 l 1,10,-1
 276 120 l 1,11,-1
 276 74 l 1,12,-1
 228 74 l 1,13,-1
 228 28 l 1,14,-1
 156 28 l 1,15,-1
 156 98 l 1,16,-1
 202 98 l 1,17,-1
 202 146 l 1,18,-1
 250 146 l 1,19,-1
 250 192 l 1,20,-1
 296 192 l 1,21,-1
 296 492 l 1,22,-1
 250 492 l 1,23,-1
 250 540 l 1,24,-1
 202 540 l 1,25,-1
 202 586 l 1,26,-1
 156 586 l 1,27,-1
 156 658 l 5,0,-1
EndSplineSet
Validated: 1
EndChar

StartChar: asterisk
Encoding: 42 42 12
Width: 525
Flags: W
LayerCount: 2
Fore
SplineSet
228 564 m 1,0,-1
 228 658 l 1,1,-1
 298 658 l 1,2,-1
 298 564 l 1,3,-1
 392 564 l 1,4,-1
 392 492 l 1,5,-1
 298 492 l 1,6,-1
 298 460 l 1,7,-1
 354 460 l 1,8,-1
 354 354 l 1,9,-1
 288 354 l 1,10,-1
 288 442 l 1,11,-1
 236 442 l 1,12,-1
 236 354 l 1,13,-1
 172 354 l 1,14,-1
 172 460 l 1,15,-1
 228 460 l 1,16,-1
 228 492 l 1,17,-1
 134 492 l 1,18,-1
 134 564 l 1,19,-1
 228 564 l 1,0,-1
EndSplineSet
Validated: 1
EndChar

StartChar: plus
Encoding: 43 43 13
Width: 525
Flags: W
LayerCount: 2
Fore
SplineSet
226 378 m 1,0,-1
 226 518 l 5,1,-1
 298 518 l 1,2,-1
 298 378 l 1,3,-1
 438 378 l 1,4,-1
 438 306 l 1,5,-1
 298 306 l 1,6,-1
 298 166 l 1,7,-1
 226 166 l 1,8,-1
 226 306 l 1,9,-1
 88 306 l 1,10,-1
 88 378 l 1,11,-1
 226 378 l 1,0,-1
EndSplineSet
Validated: 1
EndChar

StartChar: comma
Encoding: 44 44 14
Width: 525
Flags: W
LayerCount: 2
Fore
SplineSet
226 128 m 1,0,-1
 226 220 l 5,1,-1
 344 220 l 1,2,-1
 344 102 l 1,3,-1
 298 102 l 1,4,-1
 298 56 l 1,5,-1
 180 56 l 1,6,-1
 180 128 l 1,7,-1
 226 128 l 1,0,-1
EndSplineSet
Validated: 1
EndChar

StartChar: hyphen
Encoding: 45 45 15
Width: 525
Flags: W
LayerCount: 2
Fore
SplineSet
64 384 m 1,0,-1
 462 384 l 5,1,-1
 462 313 l 1,2,-1
 64 313 l 1,3,-1
 64 384 l 1,0,-1
EndSplineSet
Validated: 1
EndChar

StartChar: period
Encoding: 46 46 16
Width: 525
Flags: W
LayerCount: 2
Fore
SplineSet
204 226 m 5,0,-1
 322 226 l 1,1,-1
 322 108 l 1,2,-1
 204 108 l 1,3,-1
 204 226 l 5,0,-1
EndSplineSet
Validated: 1
EndChar

StartChar: slash
Encoding: 47 47 17
Width: 525
Flags: W
LayerCount: 2
Fore
SplineSet
182 198 m 1,0,-1
 182 104 l 1,1,-1
 110 104 l 1,2,-1
 110 224 l 1,3,-1
 156 224 l 1,4,-1
 156 316 l 1,5,-1
 202 316 l 1,6,-1
 202 410 l 1,7,-1
 250 410 l 1,8,-1
 250 504 l 1,9,-1
 298 504 l 1,10,-1
 298 598 l 1,11,-1
 344 598 l 1,12,-1
 344 692 l 5,13,-1
 416 692 l 1,14,-1
 416 572 l 1,15,-1
 370 572 l 1,16,-1
 370 480 l 1,17,-1
 322 480 l 1,18,-1
 322 386 l 1,19,-1
 276 386 l 1,20,-1
 276 292 l 1,21,-1
 228 292 l 1,22,-1
 228 198 l 1,23,-1
 182 198 l 1,0,-1
EndSplineSet
Validated: 1
EndChar

StartChar: zero
Encoding: 48 48 18
Width: 525
Flags: W
LayerCount: 2
Fore
SplineSet
167 634 m 1,0,-1
 167 679 l 1,1,-1
 358 679 l 1,2,-1
 358 634 l 1,3,-1
 404 634 l 1,4,-1
 404 589 l 1,5,-1
 451 589 l 1,6,-1
 451 207 l 1,7,-1
 404 207 l 1,8,-1
 404 162 l 1,9,-1
 358 162 l 1,10,-1
 358 117 l 1,11,-1
 167 117 l 1,12,-1
 167 162 l 1,13,-1
 121 162 l 1,14,-1
 121 207 l 1,15,-1
 74 207 l 1,16,-1
 74 589 l 1,17,-1
 121 589 l 1,18,-1
 121 634 l 1,19,-1
 167 634 l 1,0,-1
379 526 m 1,20,-1
 358 526 l 1,21,-1
 358 432 l 1,22,-1
 307 432 l 1,23,-1
 307 336 l 1,24,-1
 249 336 l 1,25,-1
 249 242 l 1,26,-1
 192 242 l 1,27,-1
 192 187 l 1,28,-1
 333 187 l 5,29,-1
 333 232 l 1,30,-1
 379 232 l 1,31,-1
 379 526 l 1,20,-1
333 552 m 1,32,-1
 333 620 l 1,33,-1
 192 620 l 1,34,-1
 192 572 l 1,35,-1
 146 572 l 1,36,-1
 146 268 l 1,37,-1
 167 268 l 1,38,-1
 167 362 l 1,39,-1
 218 362 l 1,40,-1
 218 456 l 1,41,-1
 276 456 l 1,42,-1
 276 552 l 1,43,-1
 333 552 l 1,32,-1
EndSplineSet
Validated: 1
EndChar

StartChar: one
Encoding: 49 49 19
Width: 525
Flags: W
LayerCount: 2
Fore
SplineSet
167 634 m 1,0,-1
 167 679 l 1,1,-1
 307 679 l 1,2,-1
 307 189 l 1,3,-1
 451 189 l 1,4,-1
 451 117 l 1,5,-1
 74 117 l 1,6,-1
 74 189 l 1,7,-1
 218 189 l 1,8,-1
 218 610 l 1,9,-1
 192 610 l 1,10,-1
 192 565 l 1,11,-1
 121 565 l 1,12,-1
 121 634 l 1,13,-1
 167 634 l 1,0,-1
EndSplineSet
Validated: 1
EndChar

StartChar: two
Encoding: 50 50 20
Width: 525
Flags: W
LayerCount: 2
Fore
SplineSet
180 211 m 1,0,-1
 146 211 l 1,1,-1
 146 189 l 1,2,-1
 451 189 l 1,3,-1
 451 117 l 1,4,-1
 74 117 l 1,5,-1
 74 236 l 1,6,-1
 121 236 l 1,7,-1
 121 270 l 1,8,-1
 167 270 l 1,9,-1
 167 316 l 1,10,-1
 218 316 l 1,11,-1
 218 364 l 1,12,-1
 276 364 l 1,13,-1
 276 410 l 1,14,-1
 333 410 l 1,15,-1
 333 456 l 1,16,-1
 379 456 l 1,17,-1
 379 566 l 1,18,-1
 333 566 l 1,19,-1
 333 610 l 1,20,-1
 192 610 l 1,21,-1
 192 566 l 1,22,-1
 146 566 l 1,23,-1
 146 523 l 1,24,-1
 74 523 l 1,25,-1
 74 590 l 1,26,-1
 121 590 l 1,27,-1
 121 634 l 1,28,-1
 167 634 l 1,29,-1
 167 679 l 1,30,-1
 358 679 l 5,31,-1
 358 634 l 1,32,-1
 404 634 l 1,33,-1
 404 589 l 1,34,-1
 451 589 l 1,35,-1
 451 432 l 1,36,-1
 404 432 l 1,37,-1
 404 386 l 1,38,-1
 358 386 l 1,39,-1
 358 338 l 1,40,-1
 307 338 l 1,41,-1
 307 292 l 1,42,-1
 249 292 l 1,43,-1
 249 244 l 1,44,-1
 192 244 l 1,45,-1
 192 211 l 1,46,-1
 180 211 l 1,0,-1
EndSplineSet
Validated: 1
EndChar

StartChar: three
Encoding: 51 51 21
Width: 525
Flags: W
LayerCount: 2
Fore
SplineSet
143 637 m 1,0,-1
 193 637 l 1,1,-1
 193 679 l 1,2,-1
 381 679 l 1,3,-1
 381 637 l 1,4,-1
 428 637 l 1,5,-1
 428 598 l 1,6,-1
 475 598 l 1,7,-1
 475 480 l 1,8,-1
 428 480 l 1,9,-1
 428 432 l 1,10,-1
 381 432 l 1,11,-1
 381 410 l 1,12,-1
 428 410 l 1,13,-1
 428 364 l 1,14,-1
 475 364 l 1,15,-1
 475 208 l 1,16,-1
 428 208 l 1,17,-1
 428 164 l 1,18,-1
 381 164 l 1,19,-1
 381 117 l 1,20,-1
 97 117 l 1,21,-1
 97 164 l 1,22,-1
 50 164 l 1,23,-1
 50 236 l 1,24,-1
 122 236 l 1,25,-1
 122 189 l 1,26,-1
 356 189 l 1,27,-1
 356 232 l 1,28,-1
 403 232 l 1,29,-1
 403 338 l 1,30,-1
 356 338 l 1,31,-1
 356 386 l 1,32,-1
 249 386 l 1,33,-1
 249 456 l 1,34,-1
 356 456 l 1,35,-1
 356 504 l 1,36,-1
 403 504 l 1,37,-1
 403 572 l 1,38,-1
 356 572 l 1,39,-1
 356 620 l 1,40,-1
 222 620 l 1,41,-1
 222 572 l 1,42,-1
 168 572 l 1,43,-1
 168 526 l 1,44,-1
 97 526 l 1,45,-1
 97 598 l 1,46,-1
 143 598 l 1,47,-1
 143 637 l 1,0,-1
EndSplineSet
Validated: 1
EndChar

StartChar: four
Encoding: 52 52 22
Width: 525
Flags: W
LayerCount: 2
Fore
SplineSet
404 679 m 1,0,-1
 404 412 l 1,1,-1
 450 412 l 1,2,3
 450 376 450 376 450 339 c 1,4,-1
 404 339 l 1,5,-1
 404 117 l 1,6,-1
 332 117 l 1,7,-1
 332 338 l 1,8,-1
 74 338 l 1,9,-1
 74 679 l 1,10,-1
 146 679 l 1,11,-1
 146 410 l 5,12,-1
 332 410 l 1,13,-1
 332 679 l 1,14,-1
 404 679 l 1,0,-1
EndSplineSet
Validated: 1
EndChar

StartChar: five
Encoding: 53 53 23
Width: 525
Flags: W
LayerCount: 2
Fore
SplineSet
74 390 m 1,0,-1
 74 685 l 1,1,-1
 451 685 l 1,2,-1
 451 613 l 1,3,-1
 146 613 l 1,4,-1
 146 464 l 1,5,-1
 358 464 l 1,6,-1
 358 415 l 1,7,-1
 404 415 l 1,8,-1
 404 369 l 1,9,-1
 451 369 l 1,10,-1
 451 213 l 1,11,-1
 404 213 l 1,12,-1
 404 170 l 1,13,-1
 358 170 l 1,14,-1
 358 123 l 1,15,-1
 121 123 l 1,16,-1
 121 170 l 1,17,-1
 74 170 l 1,18,-1
 74 241 l 5,19,-1
 146 241 l 1,20,-1
 146 195 l 1,21,-1
 333 195 l 1,22,-1
 333 237 l 1,23,-1
 379 237 l 1,24,-1
 379 344 l 1,25,-1
 333 344 l 1,26,-1
 333 390 l 1,27,-1
 74 390 l 1,0,-1
EndSplineSet
Validated: 1
EndChar

StartChar: six
Encoding: 54 54 24
Width: 525
Flags: W
LayerCount: 2
Fore
SplineSet
121 170 m 1,0,-1
 121 214 l 1,1,-1
 74 214 l 1,2,-1
 74 556 l 1,3,-1
 121 556 l 1,4,-1
 121 650 l 1,5,-1
 167 650 l 1,6,-1
 167 685 l 5,7,-1
 404 685 l 1,8,-1
 404 650 l 1,9,-1
 451 650 l 1,10,-1
 451 578 l 1,11,-1
 379 578 l 1,12,-1
 379 625 l 1,13,-1
 192 625 l 1,14,-1
 192 531 l 1,15,-1
 146 531 l 1,16,-1
 146 415 l 1,17,-1
 167 415 l 1,18,-1
 167 463 l 1,19,-1
 358 463 l 1,20,-1
 358 415 l 1,21,-1
 404 415 l 1,22,-1
 404 369 l 1,23,-1
 451 369 l 1,24,-1
 451 213 l 1,25,-1
 404 213 l 1,26,-1
 404 170 l 1,27,-1
 358 170 l 1,28,-1
 358 123 l 1,29,-1
 167 123 l 1,30,-1
 167 170 l 1,31,-1
 121 170 l 1,0,-1
146 344 m 1,32,-1
 146 237 l 1,33,-1
 192 237 l 1,34,-1
 192 195 l 1,35,-1
 333 195 l 1,36,-1
 333 237 l 1,37,-1
 379 237 l 1,38,-1
 379 344 l 1,39,-1
 333 344 l 1,40,-1
 333 390 l 1,41,-1
 192 390 l 1,42,-1
 192 344 l 1,43,-1
 146 344 l 1,32,-1
EndSplineSet
Validated: 1
EndChar

StartChar: seven
Encoding: 55 55 25
Width: 525
Flags: W
LayerCount: 2
Fore
SplineSet
74 613 m 1,0,-1
 74 685 l 1,1,-1
 451 685 l 1,2,-1
 451 527 l 1,3,-1
 404 527 l 1,4,-1
 404 463 l 1,5,-1
 451 463 l 1,6,-1
 451 390 l 1,7,-1
 358 390 l 1,8,-1
 358 344 l 1,9,-1
 307 344 l 1,10,-1
 307 250 l 1,11,-1
 249 250 l 1,12,-1
 249 123 l 1,13,-1
 167 123 l 1,14,-1
 167 275 l 1,15,-1
 218 275 l 1,16,-1
 218 369 l 5,17,-1
 276 369 l 1,18,-1
 276 390 l 1,19,-1
 167 390 l 1,20,-1
 167 463 l 1,21,-1
 333 463 l 1,22,-1
 333 549 l 1,23,-1
 379 549 l 1,24,-1
 379 613 l 1,25,-1
 74 613 l 1,0,-1
EndSplineSet
Validated: 1
EndChar

StartChar: eight
Encoding: 56 56 26
Width: 525
Flags: W
LayerCount: 2
Fore
SplineSet
356 340 m 5,0,-1
 356 387 l 1,1,-1
 169 387 l 1,2,-1
 169 340 l 1,3,-1
 122 340 l 1,4,-1
 122 235 l 1,5,-1
 169 235 l 1,6,-1
 169 193 l 1,7,-1
 356 193 l 1,8,-1
 356 235 l 1,9,-1
 402 235 l 1,10,-1
 402 340 l 1,11,-1
 356 340 l 5,0,-1
356 574 m 1,12,-1
 356 620 l 1,13,-1
 169 620 l 1,14,-1
 169 574 l 1,15,-1
 122 574 l 1,16,-1
 122 506 l 1,17,-1
 169 506 l 1,18,-1
 169 458 l 1,19,-1
 356 458 l 1,20,-1
 356 506 l 1,21,-1
 402 506 l 1,22,-1
 402 574 l 1,23,-1
 356 574 l 1,12,-1
51 599 m 1,24,-1
 97 599 l 1,25,-1
 97 638 l 1,26,-1
 144 638 l 1,27,-1
 144 680 l 1,28,-1
 381 680 l 1,29,-1
 381 638 l 1,30,-1
 427 638 l 1,31,-1
 427 599 l 1,32,-1
 474 599 l 1,33,-1
 474 481 l 1,34,-1
 427 481 l 1,35,-1
 427 433 l 1,36,-1
 381 433 l 1,37,-1
 381 412 l 1,38,-1
 427 412 l 1,39,-1
 427 365 l 1,40,-1
 474 365 l 1,41,-1
 474 211 l 1,42,-1
 427 211 l 1,43,-1
 427 168 l 1,44,-1
 381 168 l 1,45,-1
 381 121 l 1,46,-1
 144 121 l 1,47,-1
 144 168 l 1,48,-1
 97 168 l 1,49,-1
 97 211 l 1,50,-1
 51 211 l 1,51,-1
 51 365 l 1,52,-1
 97 365 l 1,53,-1
 97 412 l 1,54,-1
 144 412 l 1,55,-1
 144 433 l 1,56,-1
 97 433 l 1,57,-1
 97 481 l 1,58,-1
 51 481 l 1,59,-1
 51 599 l 1,24,-1
EndSplineSet
Validated: 1
EndChar

StartChar: nine
Encoding: 57 57 27
Width: 525
Flags: W
LayerCount: 2
Fore
SplineSet
332 574 m 1,0,-1
 332 620 l 1,1,-1
 193 620 l 1,2,-1
 193 574 l 1,3,-1
 146 574 l 5,4,-1
 146 506 l 1,5,-1
 193 506 l 1,6,-1
 193 458 l 1,7,-1
 332 458 l 1,8,-1
 332 506 l 1,9,-1
 379 506 l 1,10,-1
 379 574 l 1,11,-1
 332 574 l 1,0,-1
121 638 m 1,12,-1
 168 638 l 1,13,-1
 168 680 l 1,14,-1
 357 680 l 1,15,-1
 357 638 l 1,16,-1
 404 638 l 1,17,-1
 404 599 l 1,18,-1
 450 599 l 1,19,-1
 450 121 l 1,20,-1
 379 121 l 1,21,-1
 379 433 l 1,22,-1
 357 433 l 1,23,-1
 357 387 l 1,24,-1
 168 387 l 1,25,-1
 168 433 l 1,26,-1
 121 433 l 1,27,-1
 121 481 l 1,28,-1
 75 481 l 1,29,-1
 75 599 l 1,30,-1
 121 599 l 1,31,-1
 121 638 l 1,12,-1
EndSplineSet
Validated: 1
EndChar

StartChar: colon
Encoding: 58 58 28
Width: 525
Flags: W
LayerCount: 2
Fore
SplineSet
204 108 m 1,0,-1
 204 226 l 1,1,-1
 322 226 l 5,2,-1
 322 108 l 1,3,-1
 204 108 l 1,0,-1
204 340 m 1,4,-1
 204 458 l 1,5,-1
 322 458 l 1,6,-1
 322 340 l 1,7,-1
 204 340 l 1,4,-1
EndSplineSet
Validated: 1
EndChar

StartChar: semicolon
Encoding: 59 59 29
Width: 525
Flags: W
LayerCount: 2
Fore
SplineSet
226 134 m 1,0,-1
 226 226 l 1,1,-1
 344 226 l 1,2,-1
 344 108 l 1,3,-1
 298 108 l 1,4,-1
 298 62 l 1,5,-1
 180 62 l 1,6,-1
 180 134 l 1,7,-1
 226 134 l 1,0,-1
226 340 m 1,8,-1
 226 458 l 1,9,-1
 344 458 l 1,10,-1
 344 340 l 1,11,-1
 226 340 l 1,8,-1
EndSplineSet
Validated: 1
EndChar

StartChar: less
Encoding: 60 60 30
Width: 525
Flags: W
LayerCount: 2
Fore
SplineSet
320 506 m 1,0,-1
 320 552 l 1,1,-1
 392 552 l 1,2,-1
 392 482 l 1,3,-1
 346 482 l 1,4,-1
 346 434 l 1,5,-1
 298 434 l 1,6,-1
 298 388 l 1,7,-1
 252 388 l 1,8,-1
 252 340 l 1,9,-1
 204 340 l 1,10,-1
 204 320 l 1,11,-1
 252 320 l 1,12,-1
 252 274 l 1,13,-1
 298 274 l 1,14,-1
 298 226 l 1,15,-1
 346 226 l 1,16,-1
 346 180 l 1,17,-1
 392 180 l 1,18,-1
 392 108 l 1,19,-1
 320 108 l 1,20,-1
 320 156 l 1,21,-1
 274 156 l 1,22,-1
 274 202 l 1,23,-1
 228 202 l 1,24,-1
 228 248 l 1,25,-1
 180 248 l 1,26,-1
 180 294 l 1,27,-1
 134 294 l 1,28,-1
 134 366 l 1,29,-1
 180 366 l 1,30,-1
 180 412 l 1,31,-1
 228 412 l 1,32,-1
 228 458 l 1,33,-1
 274 458 l 1,34,-1
 274 506 l 1,35,-1
 320 506 l 1,0,-1
EndSplineSet
Validated: 1
EndChar

StartChar: equal
Encoding: 61 61 31
Width: 525
Flags: W
LayerCount: 2
Fore
SplineSet
88 202 m 1,0,-1
 88 274 l 1,1,-1
 438 274 l 1,2,-1
 438 202 l 1,3,-1
 88 202 l 1,0,-1
88 340 m 1,4,-1
 88 412 l 5,5,-1
 438 412 l 1,6,-1
 438 340 l 1,7,-1
 88 340 l 1,4,-1
EndSplineSet
Validated: 1
EndChar

StartChar: greater
Encoding: 62 62 32
Width: 525
Flags: W
LayerCount: 2
Fore
SplineSet
134 500 m 1,0,-1
 134 546 l 1,1,-1
 134 558 l 1,2,-1
 146 558 l 1,3,-1
 192 558 l 1,4,-1
 204 558 l 1,5,-1
 204 546 l 1,6,-1
 204 512 l 1,7,-1
 240 512 l 1,8,-1
 252 512 l 1,9,-1
 252 500 l 1,10,-1
 252 466 l 1,11,-1
 286 466 l 1,12,-1
 298 466 l 1,13,-1
 298 453 l 1,14,-1
 298 420 l 1,15,-1
 334 420 l 1,16,-1
 346 420 l 1,17,-1
 346 407 l 1,18,-1
 346 372 l 1,19,-1
 380 372 l 1,20,-1
 392 372 l 1,21,-1
 392 359 l 1,22,-1
 392 313 l 1,23,-1
 392 300 l 1,24,-1
 380 300 l 1,25,-1
 346 300 l 1,26,-1
 346 266 l 1,27,-1
 346 254 l 1,28,-1
 334 254 l 1,29,-1
 298 254 l 1,30,-1
 298 220 l 1,31,-1
 298 208 l 1,32,-1
 286 208 l 1,33,-1
 252 208 l 1,34,-1
 252 173 l 1,35,-1
 252 160 l 1,36,-1
 240 160 l 1,37,-1
 204 160 l 1,38,-1
 204 127 l 1,39,-1
 204 114 l 1,40,-1
 192 114 l 1,41,-1
 146 114 l 1,42,-1
 134 114 l 1,43,-1
 134 127 l 1,44,-1
 134 173 l 1,45,-1
 134 186 l 1,46,-1
 146 186 l 1,47,-1
 180 186 l 1,48,-1
 180 220 l 1,49,-1
 180 232 l 1,50,-1
 192 232 l 1,51,-1
 228 232 l 1,52,-1
 228 266 l 1,53,-1
 228 278 l 1,54,-1
 240 278 l 1,55,-1
 274 278 l 1,56,-1
 274 313 l 1,57,-1
 274 326 l 1,58,-1
 286 326 l 1,59,-1
 320 326 l 1,60,-1
 320 346 l 1,61,-1
 286 346 l 1,62,-1
 274 346 l 1,63,-1
 274 359 l 1,64,-1
 274 394 l 1,65,-1
 240 394 l 1,66,-1
 228 394 l 1,67,-1
 228 407 l 1,68,-1
 228 440 l 1,69,-1
 192 440 l 1,70,-1
 180 440 l 1,71,-1
 180 453 l 1,72,-1
 180 488 l 1,73,-1
 146 488 l 1,74,-1
 134 488 l 1,75,-1
 134 500 l 1,0,-1
EndSplineSet
Validated: 1
EndChar

StartChar: question
Encoding: 63 63 33
Width: 525
Flags: W
LayerCount: 2
Fore
SplineSet
226 127 m 1,0,-1
 226 220 l 1,1,-1
 226 232 l 1,2,-1
 240 232 l 1,3,-1
 286 232 l 1,4,-1
 298 232 l 1,5,-1
 298 220 l 1,6,-1
 298 127 l 1,7,-1
 298 114 l 1,8,-1
 286 114 l 1,9,-1
 240 114 l 1,10,-1
 226 114 l 1,11,-1
 226 127 l 1,0,-1
392 488 m 1,12,-1
 392 453 l 1,13,-1
 392 440 l 1,14,-1
 380 440 l 1,15,-1
 344 440 l 1,16,-1
 344 407 l 1,17,-1
 344 394 l 1,18,-1
 332 394 l 1,19,-1
 298 394 l 1,20,-1
 298 313 l 1,21,-1
 298 300 l 1,22,-1
 286 300 l 1,23,-1
 240 300 l 1,24,-1
 226 300 l 1,25,-1
 226 313 l 1,26,-1
 226 453 l 1,27,-1
 226 466 l 1,28,-1
 240 466 l 1,29,-1
 320 466 l 1,30,-1
 320 500 l 1,31,-1
 320 512 l 1,32,-1
 332 512 l 1,33,-1
 366 512 l 1,34,-1
 366 580 l 1,35,-1
 332 580 l 1,36,-1
 320 580 l 1,37,-1
 320 592 l 1,38,-1
 320 626 l 1,39,-1
 206 626 l 1,40,-1
 206 592 l 1,41,-1
 206 580 l 1,42,-1
 194 580 l 1,43,-1
 158 580 l 1,44,-1
 158 546 l 1,45,-1
 158 534 l 1,46,-1
 146 534 l 1,47,-1
 100 534 l 1,48,-1
 88 534 l 1,49,-1
 88 546 l 1,50,-1
 88 592 l 1,51,-1
 88 604 l 1,52,-1
 100 604 l 1,53,-1
 134 604 l 1,54,-1
 134 639 l 1,55,-1
 134 652 l 1,56,-1
 146 652 l 1,57,-1
 180 652 l 1,58,-1
 180 685 l 1,59,-1
 180 698 l 1,60,-1
 194 698 l 1,61,-1
 332 698 l 1,62,-1
 344 698 l 1,63,-1
 344 685 l 1,64,-1
 344 652 l 1,65,-1
 380 652 l 1,66,-1
 392 652 l 1,67,-1
 392 639 l 1,68,-1
 392 604 l 1,69,-1
 426 604 l 1,70,-1
 438 604 l 1,71,-1
 438 592 l 1,72,-1
 438 500 l 1,73,-1
 438 488 l 1,74,-1
 426 488 l 1,75,-1
 392 488 l 1,12,-1
EndSplineSet
Validated: 1
EndChar

StartChar: at
Encoding: 64 64 34
Width: 525
Flags: W
LayerCount: 2
Fore
SplineSet
334 466 m 1,0,-1
 380 466 l 1,1,-1
 380 278 l 1,2,-1
 448 278 l 1,3,-1
 448 464 l 1,4,-1
 402 464 l 1,5,-1
 402 512 l 1,6,-1
 354 512 l 1,7,-1
 354 558 l 1,8,-1
 168 558 l 1,9,-1
 168 512 l 1,10,-1
 122 512 l 1,11,-1
 122 464 l 1,12,-1
 74 464 l 1,13,-1
 74 254 l 1,14,-1
 122 254 l 1,15,-1
 122 208 l 1,16,-1
 334 208 l 1,17,-1
 334 136 l 1,18,-1
 96 136 l 1,19,-1
 96 184 l 1,20,-1
 50 184 l 1,21,-1
 50 230 l 1,22,-1
 4 230 l 1,23,-1
 4 490 l 1,24,-1
 50 490 l 1,25,-1
 50 536 l 1,26,-1
 96 536 l 1,27,-1
 96 582 l 1,28,-1
 142 582 l 1,29,-1
 142 628 l 1,30,-1
 380 628 l 1,31,-1
 380 582 l 1,32,-1
 426 582 l 1,33,-1
 426 536 l 1,34,-1
 472 536 l 1,35,-1
 472 490 l 1,36,-1
 520 490 l 1,37,-1
 520 254 l 1,38,-1
 472 254 l 1,39,-1
 472 208 l 1,40,-1
 354 208 l 1,41,-1
 354 254 l 1,42,-1
 316 254 l 1,43,-1
 316 300 l 1,44,-1
 286 300 l 1,45,-1
 286 254 l 1,46,-1
 168 254 l 1,47,-1
 168 300 l 1,48,-1
 122 300 l 1,49,-1
 122 420 l 1,50,-1
 168 420 l 1,51,-1
 168 466 l 1,52,-1
 216 466 l 1,53,-1
 216 512 l 1,54,-1
 334 512 l 1,55,-1
 334 466 l 1,0,-1
308 440 m 1,56,-1
 240 440 l 1,57,-1
 240 394 l 1,58,-1
 194 394 l 1,59,-1
 194 326 l 1,60,-1
 262 326 l 1,61,-1
 262 372 l 1,62,-1
 308 372 l 1,63,-1
 308 440 l 1,56,-1
EndSplineSet
Validated: 1
EndChar

StartChar: A
Encoding: 65 65 35
Width: 525
Flags: W
LayerCount: 2
Fore
SplineSet
332 574 m 1,0,-1
 332 587 l 1,1,-1
 332 620 l 1,2,-1
 192 620 l 1,3,-1
 192 587 l 1,4,-1
 192 574 l 1,5,-1
 180 574 l 1,6,-1
 146 574 l 1,7,-1
 146 412 l 1,8,-1
 378 412 l 1,9,-1
 378 574 l 1,10,-1
 344 574 l 1,11,-1
 332 574 l 1,0,-1
134 635 m 1,12,-1
 168 635 l 1,13,-1
 168 668 l 1,14,-1
 168 680 l 1,15,-1
 180 680 l 1,16,-1
 344 680 l 1,17,-1
 356 680 l 1,18,-1
 356 668 l 1,19,-1
 356 635 l 1,20,-1
 392 635 l 1,21,-1
 404 635 l 1,22,-1
 404 623 l 1,23,-1
 404 590 l 1,24,-1
 438 590 l 1,25,-1
 450 590 l 1,26,-1
 450 578 l 1,27,-1
 450 121 l 1,28,-1
 450 108 l 1,29,-1
 438 108 l 1,30,-1
 392 108 l 1,31,-1
 378 108 l 1,32,-1
 378 121 l 1,33,-1
 378 340 l 1,34,-1
 146 340 l 1,35,-1
 146 121 l 1,36,-1
 146 108 l 1,37,-1
 134 108 l 1,38,-1
 88 108 l 1,39,-1
 74 108 l 1,40,-1
 74 121 l 1,41,-1
 74 578 l 1,42,-1
 74 590 l 1,43,-1
 88 590 l 1,44,-1
 120 590 l 1,45,-1
 120 623 l 1,46,-1
 120 635 l 1,47,-1
 134 635 l 1,12,-1
EndSplineSet
Validated: 1
EndChar

StartChar: B
Encoding: 66 66 36
Width: 525
Flags: W
LayerCount: 2
Fore
SplineSet
332 340 m 1,0,-1
 332 388 l 1,1,-1
 146 388 l 1,2,-1
 146 180 l 1,3,-1
 332 180 l 1,4,-1
 332 226 l 1,5,-1
 378 226 l 1,6,-1
 378 340 l 1,7,-1
 332 340 l 1,0,-1
332 574 m 1,8,-1
 332 620 l 1,9,-1
 146 620 l 1,10,-1
 146 458 l 1,11,-1
 332 458 l 1,12,-1
 332 506 l 1,13,-1
 378 506 l 1,14,-1
 378 574 l 1,15,-1
 332 574 l 1,8,-1
74 108 m 1,16,-1
 74 680 l 1,17,-1
 356 680 l 1,18,-1
 356 636 l 1,19,-1
 404 636 l 1,20,-1
 404 593 l 1,21,-1
 450 593 l 1,22,-1
 450 482 l 1,23,-1
 404 482 l 1,24,-1
 404 434 l 1,25,-1
 356 434 l 1,26,-1
 356 412 l 1,27,-1
 404 412 l 1,28,-1
 404 366 l 1,29,-1
 450 366 l 1,30,-1
 450 202 l 1,31,-1
 404 202 l 1,32,-1
 404 156 l 1,33,-1
 356 156 l 1,34,-1
 356 108 l 1,35,-1
 74 108 l 1,16,-1
EndSplineSet
Validated: 1
EndChar

StartChar: C
Encoding: 67 67 37
Width: 525
Flags: W
LayerCount: 2
Fore
SplineSet
344 226 m 1,0,-1
 378 226 l 1,1,-1
 378 261 l 1,2,-1
 378 274 l 1,3,-1
 392 274 l 1,4,-1
 438 274 l 1,5,-1
 450 274 l 1,6,-1
 450 261 l 1,7,-1
 450 214 l 1,8,-1
 450 202 l 1,9,-1
 438 202 l 1,10,-1
 404 202 l 1,11,-1
 404 168 l 1,12,-1
 404 156 l 1,13,-1
 392 156 l 1,14,-1
 356 156 l 1,15,-1
 356 121 l 1,16,-1
 356 108 l 1,17,-1
 344 108 l 1,18,-1
 180 108 l 1,19,-1
 168 108 l 1,20,-1
 168 121 l 1,21,-1
 168 156 l 1,22,-1
 134 156 l 1,23,-1
 120 156 l 1,24,-1
 120 168 l 1,25,-1
 120 202 l 1,26,-1
 88 202 l 1,27,-1
 74 202 l 1,28,-1
 74 214 l 1,29,-1
 74 578 l 1,30,-1
 74 590 l 1,31,-1
 88 590 l 1,32,-1
 120 590 l 1,33,-1
 120 622 l 1,34,-1
 120 634 l 1,35,-1
 134 634 l 1,36,-1
 168 634 l 1,37,-1
 168 668 l 1,38,-1
 168 680 l 1,39,-1
 180 680 l 1,40,-1
 344 680 l 1,41,-1
 356 680 l 1,42,-1
 356 668 l 1,43,-1
 356 634 l 1,44,-1
 392 634 l 1,45,-1
 404 634 l 1,46,-1
 404 622 l 1,47,-1
 404 590 l 1,48,-1
 438 590 l 1,49,-1
 450 590 l 1,50,-1
 450 578 l 1,51,-1
 450 532 l 1,52,-1
 450 520 l 1,53,-1
 438 520 l 1,54,-1
 392 520 l 1,55,-1
 378 520 l 1,56,-1
 378 532 l 1,57,-1
 378 566 l 1,58,-1
 344 566 l 1,59,-1
 332 566 l 1,60,-1
 332 578 l 1,61,-1
 332 610 l 1,62,-1
 192 610 l 1,63,-1
 192 578 l 1,64,-1
 192 566 l 1,65,-1
 180 566 l 1,66,-1
 146 566 l 1,67,-1
 146 226 l 1,68,-1
 180 226 l 1,69,-1
 192 226 l 1,70,-1
 192 214 l 1,71,-1
 192 180 l 1,72,-1
 332 180 l 1,73,-1
 332 214 l 1,74,-1
 332 226 l 1,75,-1
 344 226 l 1,0,-1
EndSplineSet
Validated: 1
EndChar

StartChar: D
Encoding: 68 68 38
Width: 525
Flags: W
LayerCount: 2
Fore
SplineSet
332 574 m 1,0,-1
 332 620 l 1,1,-1
 146 620 l 1,2,-1
 146 192 l 5,3,-1
 332 192 l 5,4,-1
 332 238 l 5,5,-1
 378 238 l 5,6,-1
 378 574 l 1,7,-1
 332 574 l 1,0,-1
74 108 m 5,8,-1
 74 680 l 1,9,-1
 356 680 l 1,10,-1
 356 633 l 1,11,-1
 404 633 l 1,12,-1
 404 587 l 1,13,-1
 450 587 l 1,14,-1
 450 201 l 5,15,-1
 404 201 l 5,16,-1
 404 155 l 5,17,-1
 356 155 l 5,18,-1
 356 108 l 5,19,-1
 74 108 l 5,8,-1
EndSplineSet
Validated: 1
EndChar

StartChar: E
Encoding: 69 69 39
Width: 525
Flags: W
LayerCount: 2
Fore
SplineSet
110 108 m 1,0,-1
 110 680 l 1,1,-1
 414 680 l 1,2,-1
 414 608 l 1,3,-1
 180 608 l 1,4,-1
 180 458 l 1,5,-1
 366 458 l 1,6,-1
 366 388 l 1,7,-1
 180 388 l 1,8,-1
 180 180 l 1,9,-1
 414 180 l 1,10,-1
 414 108 l 1,11,-1
 110 108 l 1,0,-1
EndSplineSet
Validated: 1
EndChar

StartChar: F
Encoding: 70 70 40
Width: 525
Flags: W
LayerCount: 2
Fore
SplineSet
80 108 m 1,0,-1
 80 680 l 1,1,-1
 445 680 l 1,2,-1
 445 608 l 1,3,-1
 150 608 l 1,4,-1
 150 458 l 1,5,-1
 375 458 l 5,6,-1
 375 388 l 1,7,-1
 150 388 l 1,8,-1
 150 108 l 1,9,-1
 80 108 l 1,0,-1
EndSplineSet
Validated: 1
EndChar

StartChar: G
Encoding: 71 71 41
Width: 525
Flags: W
LayerCount: 2
Fore
SplineSet
404 628 m 1,0,-1
 404 595 l 1,1,-1
 438 595 l 1,2,-1
 450 595 l 1,3,-1
 450 584 l 1,4,-1
 450 539 l 1,5,-1
 450 528 l 1,6,-1
 438 528 l 1,7,-1
 392 528 l 1,8,-1
 378 528 l 1,9,-1
 378 539 l 1,10,-1
 378 572 l 1,11,-1
 344 572 l 1,12,-1
 332 572 l 1,13,-1
 332 584 l 1,14,-1
 332 617 l 1,15,-1
 192 617 l 1,16,-1
 192 606 l 2,17,18
 192 599 192 599 192 596 c 128,-1,19
 192 593 192 593 191 588 c 128,-1,20
 190 583 190 583 186 579 c 0,21,22
 178 572 178 572 158 570 c 2,23,-1
 146 568 l 1,24,-1
 146 226 l 1,25,-1
 180 226 l 1,26,-1
 192 226 l 1,27,-1
 192 214 l 1,28,-1
 192 180 l 1,29,-1
 226 180 l 2,30,31
 280 180 280 180 310 183 c 2,32,-1
 332 186 l 1,33,-1
 332 198 l 2,34,35
 332 200 332 200 332 203.5 c 128,-1,36
 332 207 332 207 332 208.5 c 128,-1,37
 332 210 332 210 332 213 c 128,-1,38
 332 216 332 216 333 218 c 128,-1,39
 334 220 334 220 336 222.5 c 128,-1,40
 338 225 338 225 340 227 c 0,41,42
 346 232 346 232 368 232 c 2,43,-1
 378 232 l 1,44,-1
 378 394 l 1,45,-1
 292 394 l 1,46,-1
 276 394 l 1,47,-1
 276 407 l 1,48,-1
 276 453 l 1,49,-1
 276 466 l 1,50,-1
 292 466 l 1,51,-1
 438 466 l 1,52,-1
 450 466 l 1,53,-1
 450 453 l 1,54,-1
 450 220 l 1,55,-1
 450 208 l 1,56,-1
 438 208 l 1,57,-1
 404 208 l 1,58,-1
 404 173 l 1,59,-1
 404 160 l 1,60,-1
 392 160 l 1,61,-1
 368 160 l 2,62,63
 366 160 366 160 362 160 c 0,64,-1
 358 160 l 0,65,66
 358 158 358 158 357 156 c 128,-1,67
 356 154 356 154 356 152 c 0,68,69
 356 132 356 132 352 124 c 0,70,71
 344 114 344 114 324 111 c 0,72,73
 300 109 300 109 248 108 c 0,74,75
 240 108 240 108 236 108 c 2,76,-1
 180 108 l 1,77,-1
 168 108 l 1,78,-1
 168 121 l 1,79,-1
 168 156 l 1,80,-1
 134 156 l 1,81,-1
 120 156 l 1,82,-1
 120 168 l 1,83,-1
 120 202 l 1,84,-1
 88 202 l 1,85,-1
 74 202 l 1,86,-1
 74 214 l 1,87,-1
 74 580 l 1,88,-1
 74 592 l 1,89,-1
 88 592 l 1,90,-1
 120 592 l 1,91,-1
 120 629 l 1,92,-1
 120 641 l 1,93,-1
 134 641 l 1,94,-1
 168 641 l 1,95,-1
 168 672 l 1,96,-1
 168 685 l 1,97,-1
 180 685 l 1,98,-1
 344 685 l 1,99,-1
 356 685 l 1,100,-1
 356 672 l 1,101,-1
 356 640 l 1,102,-1
 392 640 l 1,103,-1
 404 640 l 1,104,-1
 404 628 l 1,0,-1
EndSplineSet
Validated: 1025
EndChar

StartChar: H
Encoding: 72 72 42
Width: 525
Flags: W
LayerCount: 2
Fore
SplineSet
74 114 m 1,0,-1
 74 127 l 1,1,-1
 74 672 l 1,2,-1
 74 685 l 1,3,-1
 88 685 l 1,4,-1
 134 685 l 1,5,-1
 146 685 l 1,6,-1
 146 672 l 1,7,-1
 146 466 l 1,8,-1
 378 466 l 1,9,-1
 378 672 l 1,10,-1
 378 685 l 1,11,-1
 392 685 l 1,12,-1
 438 685 l 1,13,-1
 450 685 l 1,14,-1
 450 672 l 1,15,-1
 450 127 l 1,16,-1
 450 114 l 1,17,-1
 438 114 l 1,18,-1
 392 114 l 1,19,-1
 378 114 l 1,20,-1
 378 127 l 1,21,-1
 378 394 l 1,22,-1
 146 394 l 1,23,-1
 146 127 l 1,24,-1
 146 114 l 1,25,-1
 134 114 l 1,26,-1
 88 114 l 1,27,-1
 74 114 l 1,0,-1
EndSplineSet
Validated: 1
EndChar

StartChar: I
Encoding: 73 73 43
Width: 525
Flags: W
LayerCount: 2
Fore
SplineSet
82 620 m 1,0,-1
 82 691 l 1,1,-1
 442 691 l 1,2,-1
 442 620 l 1,3,-1
 298 620 l 1,4,-1
 298 179 l 1,5,-1
 442 179 l 1,6,-1
 442 108 l 1,7,-1
 82 108 l 1,8,-1
 82 179 l 1,9,-1
 226 179 l 1,10,-1
 226 620 l 1,11,-1
 82 620 l 1,0,-1
EndSplineSet
Validated: 1
EndChar

StartChar: J
Encoding: 74 74 44
Width: 525
Flags: W
LayerCount: 2
Fore
SplineSet
168 609 m 5,0,-1
 168 681 l 5,1,-1
 450 681 l 5,2,-1
 450 609 l 5,3,-1
 356 609 l 5,4,-1
 356 155 l 1,5,-1
 308 155 l 1,6,-1
 308 108 l 1,7,-1
 120 108 l 1,8,-1
 120 155 l 1,9,-1
 74 155 l 1,10,-1
 74 226 l 1,11,-1
 146 226 l 1,12,-1
 146 180 l 1,13,-1
 276 180 l 1,14,-1
 276 609 l 5,15,-1
 168 609 l 5,0,-1
EndSplineSet
Validated: 1
EndChar

StartChar: K
Encoding: 75 75 45
Width: 525
Flags: W
LayerCount: 2
Fore
SplineSet
74 108 m 1,0,-1
 74 680 l 1,1,-1
 146 680 l 1,2,-1
 146 458 l 1,3,-1
 168 458 l 1,4,-1
 168 506 l 1,5,-1
 218 506 l 1,6,-1
 218 549 l 1,7,-1
 276 549 l 1,8,-1
 276 593 l 1,9,-1
 332 593 l 1,10,-1
 332 636 l 1,11,-1
 378 636 l 1,12,-1
 378 680 l 1,13,-1
 450 680 l 1,14,-1
 450 612 l 1,15,-1
 404 612 l 1,16,-1
 404 569 l 1,17,-1
 356 569 l 1,18,-1
 356 525 l 1,19,-1
 308 525 l 1,20,-1
 308 482 l 1,21,-1
 248 482 l 1,22,-1
 248 434 l 1,23,-1
 192 434 l 1,24,-1
 192 366 l 1,25,-1
 248 366 l 1,26,-1
 248 320 l 1,27,-1
 308 320 l 1,28,-1
 308 274 l 1,29,-1
 356 274 l 1,30,-1
 356 226 l 1,31,-1
 404 226 l 1,32,-1
 404 180 l 1,33,-1
 450 180 l 1,34,-1
 450 108 l 1,35,-1
 378 108 l 1,36,-1
 378 156 l 1,37,-1
 332 156 l 1,38,-1
 332 202 l 1,39,-1
 276 202 l 1,40,-1
 276 248 l 1,41,-1
 218 248 l 1,42,-1
 218 294 l 1,43,-1
 168 294 l 1,44,-1
 168 340 l 1,45,-1
 146 340 l 1,46,-1
 146 108 l 1,47,-1
 74 108 l 1,0,-1
EndSplineSet
Validated: 1
EndChar

StartChar: L
Encoding: 76 76 46
Width: 525
Flags: W
LayerCount: 2
Fore
SplineSet
74 108 m 5,0,-1
 74 680 l 1,1,-1
 146 680 l 1,2,-1
 146 180 l 5,3,-1
 450 180 l 5,4,-1
 450 108 l 5,5,-1
 74 108 l 5,0,-1
EndSplineSet
Validated: 1
EndChar

StartChar: M
Encoding: 77 77 47
Width: 525
Flags: W
LayerCount: 2
Fore
SplineSet
74 632 m 5,0,-1
 120 632 l 5,1,-1
 120 679 l 5,2,-1
 198 679 l 5,3,-1
 198 632 l 5,4,-1
 252 632 l 5,5,-1
 252 586 l 5,6,-1
 274 586 l 5,7,-1
 274 632 l 5,8,-1
 328 632 l 5,9,-1
 328 679 l 5,10,-1
 404 679 l 5,11,-1
 404 632 l 5,12,-1
 450 632 l 5,13,-1
 450 586 l 5,14,-1
 496 586 l 5,15,-1
 496 108 l 1,16,-1
 426 108 l 1,17,-1
 426 561 l 5,18,-1
 378 561 l 5,19,-1
 378 607 l 5,20,-1
 356 607 l 5,21,-1
 356 561 l 5,22,-1
 304 561 l 5,23,-1
 304 387 l 1,24,-1
 224 387 l 1,25,-1
 224 561 l 5,26,-1
 170 561 l 5,27,-1
 170 607 l 5,28,-1
 146 607 l 5,29,-1
 146 561 l 5,30,-1
 98 561 l 5,31,-1
 98 108 l 1,32,-1
 28 108 l 1,33,-1
 28 586 l 5,34,-1
 74 586 l 5,35,-1
 74 632 l 5,0,-1
EndSplineSet
Validated: 1
EndChar

StartChar: N
Encoding: 78 78 48
Width: 525
Flags: W
LayerCount: 2
Fore
SplineSet
50 108 m 1,0,-1
 50 680 l 1,1,-1
 168 680 l 1,2,-1
 168 593 l 1,3,-1
 222 593 l 1,4,-1
 222 506 l 1,5,-1
 278 506 l 1,6,-1
 278 412 l 1,7,-1
 332 412 l 1,8,-1
 332 320 l 1,9,-1
 380 320 l 1,10,-1
 380 226 l 1,11,-1
 402 226 l 1,12,-1
 402 680 l 1,13,-1
 474 680 l 1,14,-1
 474 108 l 1,15,-1
 356 108 l 1,16,-1
 356 202 l 1,17,-1
 302 202 l 1,18,-1
 302 294 l 1,19,-1
 248 294 l 1,20,-1
 248 388 l 1,21,-1
 192 388 l 1,22,-1
 192 482 l 1,23,-1
 144 482 l 1,24,-1
 144 569 l 1,25,-1
 122 569 l 1,26,-1
 122 108 l 1,27,-1
 50 108 l 1,0,-1
EndSplineSet
Validated: 1
EndChar

StartChar: O
Encoding: 79 79 49
Width: 525
Flags: W
LayerCount: 2
Fore
SplineSet
354 574 m 1,0,-1
 354 620 l 1,1,-1
 173 620 l 1,2,-1
 173 574 l 1,3,-1
 125 574 l 1,4,-1
 125 233 l 1,5,-1
 173 233 l 1,6,-1
 173 187 l 1,7,-1
 354 187 l 1,8,-1
 354 233 l 1,9,-1
 402 233 l 1,10,-1
 402 574 l 1,11,-1
 354 574 l 1,0,-1
55 587 m 1,12,-1
 101 587 l 1,13,-1
 101 633 l 1,14,-1
 147 633 l 1,15,-1
 147 680 l 1,16,-1
 380 680 l 1,17,-1
 380 633 l 1,18,-1
 426 633 l 1,19,-1
 426 587 l 1,20,-1
 472 587 l 1,21,-1
 472 206 l 1,22,-1
 426 206 l 1,23,-1
 426 161 l 1,24,-1
 380 161 l 1,25,-1
 380 116 l 1,26,-1
 147 116 l 1,27,-1
 147 161 l 1,28,-1
 101 161 l 1,29,-1
 101 206 l 1,30,-1
 55 206 l 1,31,-1
 55 587 l 1,12,-1
EndSplineSet
Validated: 1
EndChar

StartChar: P
Encoding: 80 80 50
Width: 525
Flags: W
LayerCount: 2
Fore
SplineSet
332 574 m 1,0,-1
 332 587 l 1,1,-1
 332 620 l 1,2,-1
 146 620 l 1,3,-1
 146 458 l 1,4,-1
 332 458 l 1,5,-1
 332 494 l 1,6,-1
 332 506 l 1,7,-1
 344 506 l 1,8,-1
 378 506 l 1,9,-1
 378 574 l 1,10,-1
 344 574 l 1,11,-1
 332 574 l 1,0,-1
74 108 m 1,12,-1
 74 121 l 1,13,-1
 74 668 l 1,14,-1
 74 680 l 1,15,-1
 88 680 l 5,16,-1
 344 680 l 1,17,-1
 356 680 l 1,18,-1
 356 668 l 1,19,-1
 356 636 l 1,20,-1
 392 636 l 1,21,-1
 404 636 l 1,22,-1
 404 624 l 1,23,-1
 404 593 l 1,24,-1
 438 593 l 1,25,-1
 450 593 l 1,26,-1
 450 581 l 1,27,-1
 450 493 l 1,28,-1
 450 482 l 1,29,-1
 438 482 l 1,30,-1
 404 482 l 1,31,-1
 404 446 l 1,32,-1
 404 434 l 1,33,-1
 392 434 l 1,34,-1
 356 434 l 1,35,-1
 356 400 l 1,36,-1
 356 388 l 1,37,-1
 344 388 l 1,38,-1
 146 388 l 1,39,-1
 146 121 l 1,40,-1
 146 108 l 1,41,-1
 134 108 l 1,42,-1
 88 108 l 1,43,-1
 74 108 l 1,12,-1
EndSplineSet
Validated: 1
EndChar

StartChar: Q
Encoding: 81 81 51
Width: 525
Flags: W
LayerCount: 2
Fore
SplineSet
4 587 m 1,0,-1
 50 587 l 1,1,-1
 50 634 l 1,2,-1
 98 634 l 1,3,-1
 98 680 l 5,4,-1
 378 680 l 1,5,-1
 378 634 l 1,6,-1
 426 634 l 1,7,-1
 426 587 l 1,8,-1
 472 587 l 1,9,-1
 472 201 l 1,10,-1
 426 201 l 1,11,-1
 426 179 l 1,12,-1
 520 179 l 1,13,-1
 520 108 l 1,14,-1
 402 108 l 1,15,-1
 402 154 l 1,16,-1
 378 154 l 1,17,-1
 378 108 l 1,18,-1
 98 108 l 1,19,-1
 98 154 l 1,20,-1
 50 154 l 1,21,-1
 50 201 l 1,22,-1
 4 201 l 1,23,-1
 4 587 l 1,0,-1
122 575 m 1,24,-1
 76 575 l 1,25,-1
 76 238 l 1,26,-1
 122 238 l 1,27,-1
 122 192 l 1,28,-1
 350 192 l 1,29,-1
 350 238 l 1,30,-1
 402 238 l 1,31,-1
 402 575 l 1,32,-1
 350 575 l 1,33,-1
 350 621 l 1,34,-1
 122 621 l 1,35,-1
 122 575 l 1,24,-1
EndSplineSet
Validated: 1
EndChar

StartChar: R
Encoding: 82 82 52
Width: 525
Flags: W
LayerCount: 2
Fore
SplineSet
356 679 m 5,0,-1
 356 635 l 5,1,-1
 404 635 l 5,2,-1
 404 591 l 5,3,-1
 450 591 l 5,4,-1
 450 482 l 5,5,-1
 404 482 l 5,6,-1
 404 434 l 5,7,-1
 356 434 l 5,8,-1
 356 414 l 5,9,-1
 404 414 l 5,10,-1
 404 366 l 5,11,-1
 450 366 l 5,12,-1
 450 108 l 5,13,-1
 378 108 l 5,14,-1
 378 340 l 5,15,-1
 332 340 l 5,16,-1
 332 388 l 5,17,-1
 146 388 l 5,18,-1
 146 108 l 5,19,-1
 74 108 l 5,20,-1
 74 679 l 5,21,-1
 356 679 l 5,0,-1
332 574 m 5,22,-1
 332 620 l 5,23,-1
 146 620 l 5,24,-1
 146 460 l 5,25,-1
 332 460 l 5,26,-1
 332 506 l 5,27,-1
 378 506 l 5,28,-1
 378 574 l 5,29,-1
 332 574 l 5,22,-1
EndSplineSet
Validated: 1
EndChar

StartChar: S
Encoding: 83 83 53
Width: 525
Flags: W
LayerCount: 2
Fore
SplineSet
434 640 m 1,0,-1
 434 597 l 1,1,-1
 480 597 l 1,2,-1
 480 530 l 1,3,-1
 408 530 l 1,4,-1
 408 574 l 1,5,-1
 362 574 l 1,6,-1
 362 617 l 1,7,-1
 163 617 l 1,8,-1
 163 574 l 1,9,-1
 117 574 l 1,10,-1
 117 510 l 1,11,-1
 163 510 l 1,12,-1
 163 464 l 1,13,-1
 386 464 l 1,14,-1
 386 416 l 1,15,-1
 434 416 l 1,16,-1
 434 370 l 1,17,-1
 480 370 l 1,18,-1
 480 204 l 1,19,-1
 434 204 l 1,20,-1
 434 158 l 1,21,-1
 386 158 l 1,22,-1
 386 110 l 1,23,-1
 139 110 l 1,24,-1
 139 158 l 1,25,-1
 93 158 l 1,26,-1
 93 204 l 1,27,-1
 45 204 l 1,28,-1
 45 276 l 1,29,-1
 117 276 l 1,30,-1
 117 228 l 1,31,-1
 163 228 l 1,32,-1
 163 182 l 1,33,-1
 362 182 l 1,34,-1
 362 228 l 1,35,-1
 408 228 l 1,36,-1
 408 344 l 1,37,-1
 362 344 l 1,38,-1
 362 390 l 1,39,-1
 139 390 l 1,40,-1
 139 438 l 1,41,-1
 93 438 l 1,42,-1
 93 486 l 1,43,-1
 45 486 l 1,44,-1
 45 596 l 1,45,-1
 93 596 l 1,46,-1
 93 640 l 1,47,-1
 139 640 l 1,48,-1
 139 685 l 1,49,-1
 386 685 l 1,50,-1
 386 640 l 1,51,-1
 434 640 l 1,0,-1
EndSplineSet
Validated: 1
EndChar

StartChar: T
Encoding: 84 84 54
Width: 525
Flags: W
LayerCount: 2
Fore
SplineSet
61 613 m 1,0,-1
 61 685 l 1,1,-1
 465 685 l 1,2,-1
 465 613 l 1,3,-1
 308 613 l 1,4,-1
 308 98 l 1,5,-1
 218 98 l 1,6,-1
 218 613 l 1,7,-1
 61 613 l 1,0,-1
EndSplineSet
Validated: 1
EndChar

StartChar: U
Encoding: 85 85 55
Width: 525
Flags: W
LayerCount: 2
Fore
SplineSet
74 107 m 1,0,-1
 74 680 l 5,1,-1
 146 680 l 5,2,-1
 146 179 l 1,3,-1
 378 179 l 1,4,-1
 378 680 l 5,5,-1
 450 680 l 5,6,-1
 450 107 l 1,7,-1
 74 107 l 1,0,-1
EndSplineSet
Validated: 1
EndChar

StartChar: V
Encoding: 86 86 56
Width: 525
Flags: W
LayerCount: 2
Fore
SplineSet
74 685 m 1,0,-1
 144 685 l 1,1,-1
 144 464 l 1,2,-1
 198 464 l 1,3,-1
 198 322 l 1,4,-1
 252 322 l 1,5,-1
 252 228 l 1,6,-1
 276 228 l 1,7,-1
 276 322 l 1,8,-1
 328 322 l 1,9,-1
 328 464 l 1,10,-1
 380 464 l 1,11,-1
 380 685 l 5,12,-1
 452 685 l 1,13,-1
 452 438 l 1,14,-1
 404 438 l 1,15,-1
 404 298 l 1,16,-1
 356 298 l 1,17,-1
 356 204 l 1,18,-1
 304 204 l 1,19,-1
 304 110 l 1,20,-1
 224 110 l 1,21,-1
 224 204 l 1,22,-1
 170 204 l 1,23,-1
 170 298 l 1,24,-1
 120 298 l 1,25,-1
 120 438 l 1,26,-1
 74 438 l 1,27,-1
 74 685 l 1,0,-1
EndSplineSet
Validated: 1
EndChar

StartChar: W
Encoding: 87 87 57
Width: 525
Flags: W
LayerCount: 2
Fore
SplineSet
26 155 m 1,0,-1
 26 680 l 5,1,-1
 98 680 l 5,2,-1
 98 180 l 1,3,-1
 170 180 l 1,4,-1
 170 226 l 1,5,-1
 224 226 l 1,6,-1
 224 403 l 1,7,-1
 304 403 l 1,8,-1
 304 226 l 1,9,-1
 356 226 l 1,10,-1
 356 180 l 1,11,-1
 426 180 l 1,12,-1
 426 680 l 5,13,-1
 498 680 l 5,14,-1
 498 155 l 1,15,-1
 452 155 l 1,16,-1
 452 108 l 1,17,-1
 328 108 l 1,18,-1
 328 155 l 1,19,-1
 276 155 l 1,20,-1
 276 201 l 1,21,-1
 252 201 l 1,22,-1
 252 155 l 1,23,-1
 198 155 l 1,24,-1
 198 108 l 1,25,-1
 74 108 l 1,26,-1
 74 155 l 1,27,-1
 26 155 l 1,0,-1
EndSplineSet
Validated: 1
EndChar

StartChar: X
Encoding: 88 88 58
Width: 525
Flags: W
LayerCount: 2
Fore
SplineSet
-20 617 m 1,0,-1
 -20 628 l 1,1,-1
 -20 672 l 1,2,-1
 -20 685 l 1,3,-1
 -8 685 l 1,4,-1
 40 685 l 1,5,-1
 52 685 l 1,6,-1
 52 672 l 1,7,-1
 52 640 l 1,8,-1
 86 640 l 1,9,-1
 98 640 l 1,10,-1
 98 629 l 1,11,-1
 98 597 l 1,12,-1
 136 597 l 1,13,-1
 148 597 l 1,14,-1
 148 585 l 1,15,-1
 148 553 l 1,16,-1
 186 553 l 1,17,-1
 200 553 l 1,18,-1
 200 542 l 1,19,-1
 200 510 l 1,20,-1
 238 510 l 1,21,-1
 252 510 l 1,22,-1
 252 498 l 1,23,-1
 252 464 l 1,24,-1
 274 464 l 1,25,-1
 274 498 l 1,26,-1
 274 510 l 1,27,-1
 288 510 l 1,28,-1
 326 510 l 1,29,-1
 326 542 l 1,30,-1
 326 553 l 1,31,-1
 338 553 l 1,32,-1
 376 553 l 1,33,-1
 376 585 l 1,34,-1
 376 597 l 1,35,-1
 390 597 l 1,36,-1
 426 597 l 1,37,-1
 426 629 l 1,38,-1
 426 640 l 1,39,-1
 438 640 l 1,40,-1
 472 640 l 1,41,-1
 472 672 l 1,42,-1
 472 685 l 1,43,-1
 486 685 l 1,44,-1
 532 685 l 1,45,-1
 544 685 l 1,46,-1
 544 672 l 1,47,-1
 544 628 l 1,48,-1
 544 617 l 1,49,-1
 532 617 l 1,50,-1
 498 617 l 1,51,-1
 498 584 l 1,52,-1
 498 573 l 1,53,-1
 486 573 l 1,54,-1
 450 573 l 1,55,-1
 450 540 l 1,56,-1
 450 529 l 1,57,-1
 438 529 l 1,58,-1
 404 529 l 1,59,-1
 404 497 l 1,60,-1
 404 486 l 1,61,-1
 390 486 l 1,62,-1
 352 486 l 1,63,-1
 352 451 l 1,64,-1
 352 438 l 1,65,-1
 338 438 l 1,66,-1
 302 438 l 1,67,-1
 302 370 l 1,68,-1
 338 370 l 1,69,-1
 352 370 l 1,70,-1
 352 357 l 1,71,-1
 352 322 l 1,72,-1
 390 322 l 1,73,-1
 404 322 l 1,74,-1
 404 310 l 1,75,-1
 404 276 l 1,76,-1
 438 276 l 1,77,-1
 450 276 l 1,78,-1
 450 263 l 1,79,-1
 450 228 l 1,80,-1
 486 228 l 1,81,-1
 498 228 l 1,82,-1
 498 216 l 1,83,-1
 498 182 l 1,84,-1
 532 182 l 1,85,-1
 544 182 l 1,86,-1
 544 170 l 1,87,-1
 544 123 l 1,88,-1
 544 110 l 1,89,-1
 532 110 l 1,90,-1
 486 110 l 1,91,-1
 472 110 l 1,92,-1
 472 123 l 1,93,-1
 472 158 l 1,94,-1
 438 158 l 1,95,-1
 426 158 l 1,96,-1
 426 170 l 1,97,-1
 426 204 l 1,98,-1
 390 204 l 1,99,-1
 376 204 l 1,100,-1
 376 216 l 1,101,-1
 376 250 l 1,102,-1
 338 250 l 1,103,-1
 326 250 l 1,104,-1
 326 263 l 1,105,-1
 326 298 l 1,106,-1
 288 298 l 1,107,-1
 274 298 l 1,108,-1
 274 310 l 1,109,-1
 274 344 l 1,110,-1
 252 344 l 1,111,-1
 252 310 l 1,112,-1
 252 298 l 1,113,-1
 238 298 l 1,114,-1
 200 298 l 1,115,-1
 200 263 l 1,116,-1
 200 250 l 1,117,-1
 186 250 l 1,118,-1
 148 250 l 1,119,-1
 148 216 l 1,120,-1
 148 204 l 1,121,-1
 136 204 l 1,122,-1
 98 204 l 1,123,-1
 98 170 l 1,124,-1
 98 158 l 1,125,-1
 86 158 l 1,126,-1
 52 158 l 1,127,-1
 52 123 l 1,128,-1
 52 110 l 1,129,-1
 40 110 l 1,130,-1
 -8 110 l 1,131,-1
 -20 110 l 1,132,-1
 -20 123 l 1,133,-1
 -20 170 l 1,134,-1
 -20 182 l 1,135,-1
 -8 182 l 1,136,-1
 26 182 l 1,137,-1
 26 216 l 1,138,-1
 26 228 l 1,139,-1
 40 228 l 1,140,-1
 72 228 l 1,141,-1
 72 263 l 1,142,-1
 72 276 l 1,143,-1
 86 276 l 1,144,-1
 122 276 l 1,145,-1
 122 310 l 1,146,-1
 122 322 l 1,147,-1
 136 322 l 1,148,-1
 172 322 l 1,149,-1
 172 357 l 1,150,-1
 172 370 l 1,151,-1
 186 370 l 1,152,-1
 224 370 l 1,153,-1
 224 438 l 1,154,-1
 186 438 l 1,155,-1
 172 438 l 1,156,-1
 172 451 l 1,157,-1
 172 486 l 1,158,-1
 136 486 l 1,159,-1
 122 486 l 1,160,-1
 122 497 l 1,161,-1
 122 529 l 1,162,-1
 86 529 l 1,163,-1
 72 529 l 1,164,-1
 72 540 l 1,165,-1
 72 573 l 1,166,-1
 40 573 l 1,167,-1
 26 573 l 1,168,-1
 26 584 l 1,169,-1
 26 617 l 1,170,-1
 -8 617 l 1,171,-1
 -20 617 l 1,0,-1
EndSplineSet
Validated: 1025
EndChar

StartChar: Y
Encoding: 89 89 59
Width: 525
Flags: W
LayerCount: 2
Fore
SplineSet
74 438 m 1,0,-1
 74 450 l 1,1,-1
 74 672 l 1,2,-1
 74 685 l 1,3,-1
 86 685 l 1,4,-1
 134 685 l 1,5,-1
 146 685 l 1,6,-1
 146 672 l 1,7,-1
 146 464 l 1,8,-1
 180 464 l 1,9,-1
 192 464 l 1,10,-1
 192 451 l 1,11,-1
 192 416 l 1,12,-1
 332 416 l 1,13,-1
 332 451 l 1,14,-1
 332 464 l 1,15,-1
 346 464 l 1,16,-1
 378 464 l 1,17,-1
 378 672 l 1,18,-1
 378 685 l 1,19,-1
 392 685 l 1,20,-1
 438 685 l 1,21,-1
 450 685 l 1,22,-1
 450 672 l 1,23,-1
 450 450 l 1,24,-1
 450 438 l 1,25,-1
 438 438 l 1,26,-1
 404 438 l 1,27,-1
 404 403 l 1,28,-1
 404 390 l 1,29,-1
 392 390 l 1,30,-1
 358 390 l 1,31,-1
 358 357 l 1,32,-1
 358 344 l 1,33,-1
 346 344 l 1,34,-1
 306 344 l 1,35,-1
 306 123 l 1,36,-1
 306 110 l 1,37,-1
 292 110 l 1,38,-1
 234 110 l 1,39,-1
 218 110 l 1,40,-1
 218 123 l 1,41,-1
 218 344 l 1,42,-1
 180 344 l 1,43,-1
 166 344 l 1,44,-1
 166 357 l 1,45,-1
 166 390 l 1,46,-1
 134 390 l 1,47,-1
 120 390 l 1,48,-1
 120 403 l 1,49,-1
 120 438 l 1,50,-1
 86 438 l 1,51,-1
 74 438 l 1,0,-1
EndSplineSet
Validated: 1
EndChar

StartChar: Z
Encoding: 90 90 60
Width: 525
Flags: W
LayerCount: 2
Fore
SplineSet
4 619 m 1,0,-1
 4 632 l 1,1,-1
 4 678 l 1,2,-1
 4 690 l 1,3,-1
 16 690 l 1,4,-1
 508 690 l 1,5,-1
 522 690 l 1,6,-1
 522 678 l 1,7,-1
 522 589 l 1,8,-1
 522 577 l 1,9,-1
 508 577 l 1,10,-1
 474 577 l 1,11,-1
 474 545 l 1,12,-1
 474 533 l 1,13,-1
 460 533 l 1,14,-1
 428 533 l 1,15,-1
 428 500 l 1,16,-1
 428 488 l 1,17,-1
 414 488 l 1,18,-1
 378 488 l 1,19,-1
 378 456 l 1,20,-1
 378 444 l 1,21,-1
 364 444 l 1,22,-1
 326 444 l 1,23,-1
 326 410 l 1,24,-1
 326 398 l 1,25,-1
 314 398 l 1,26,-1
 276 398 l 1,27,-1
 276 362 l 1,28,-1
 276 350 l 1,29,-1
 262 350 l 1,30,-1
 224 350 l 1,31,-1
 224 316 l 1,32,-1
 224 304 l 1,33,-1
 210 304 l 1,34,-1
 172 304 l 1,35,-1
 172 269 l 1,36,-1
 172 256 l 1,37,-1
 158 256 l 1,38,-1
 122 256 l 1,39,-1
 122 222 l 1,40,-1
 122 210 l 1,41,-1
 108 210 l 1,42,-1
 76 210 l 1,43,-1
 76 188 l 1,44,-1
 508 188 l 1,45,-1
 522 188 l 1,46,-1
 522 175 l 1,47,-1
 522 129 l 1,48,-1
 522 116 l 1,49,-1
 508 116 l 1,50,-1
 302 116 l 2,51,52
 196 116 196 116 130 115 c 0,53,54
 70 114 70 114 52 113 c 2,55,-1
 18 109 l 1,56,-1
 4 107 l 1,57,-1
 4 121 l 1,58,-1
 4 216 l 1,59,-1
 4 227 l 1,60,-1
 14 228 l 1,61,-1
 36 232 l 1,62,-1
 38 232 l 2,63,64
 42 232 42 232 45 233 c 128,-1,65
 48 234 48 234 50 235 c 0,66,67
 50 239 50 239 50 247 c 0,68,69
 50 249 50 249 50 252.5 c 128,-1,70
 50 256 50 256 50 257.5 c 128,-1,71
 50 259 50 259 51 262 c 128,-1,72
 52 265 52 265 52 267 c 128,-1,73
 52 269 52 269 54 271.5 c 128,-1,74
 56 274 56 274 58 276 c 0,75,76
 64 282 64 282 86 282 c 2,77,-1
 96 282 l 1,78,-1
 96 316 l 1,79,-1
 96 328 l 1,80,-1
 108 328 l 1,81,-1
 146 328 l 1,82,-1
 146 362 l 1,83,-1
 146 374 l 1,84,-1
 158 374 l 1,85,-1
 196 374 l 1,86,-1
 196 410 l 1,87,-1
 196 422 l 1,88,-1
 210 422 l 1,89,-1
 248 422 l 1,90,-1
 248 457 l 1,91,-1
 248 470 l 1,92,-1
 262 470 l 1,93,-1
 300 470 l 1,94,-1
 300 500 l 1,95,-1
 300 512 l 1,96,-1
 314 512 l 1,97,-1
 352 512 l 1,98,-1
 352 544 l 1,99,-1
 352 555 l 1,100,-1
 364 555 l 1,101,-1
 402 555 l 1,102,-1
 402 587 l 1,103,-1
 402 599 l 1,104,-1
 414 599 l 1,105,-1
 448 599 l 1,106,-1
 448 619 l 1,107,-1
 16 619 l 1,108,-1
 4 619 l 1,0,-1
EndSplineSet
Validated: 1025
EndChar

StartChar: bracketleft
Encoding: 91 91 61
Width: 525
Flags: W
LayerCount: 2
Fore
SplineSet
180 62 m 1,0,-1
 180 738 l 1,1,-1
 346 738 l 1,2,-1
 346 668 l 1,3,-1
 252 668 l 1,4,-1
 252 134 l 5,5,-1
 346 134 l 1,6,-1
 346 62 l 1,7,-1
 180 62 l 1,0,-1
EndSplineSet
Validated: 1
EndChar

StartChar: backslash
Encoding: 92 92 62
Width: 525
Flags: W
LayerCount: 2
Fore
SplineSet
110 587 m 1,0,-1
 110 680 l 1,1,-1
 110 692 l 1,2,-1
 124 692 l 1,3,-1
 170 692 l 1,4,-1
 182 692 l 1,5,-1
 182 680 l 1,6,-1
 182 600 l 1,7,-1
 216 600 l 1,8,-1
 228 600 l 1,9,-1
 228 587 l 1,10,-1
 228 506 l 1,11,-1
 262 506 l 1,12,-1
 274 506 l 1,13,-1
 274 494 l 1,14,-1
 274 412 l 1,15,-1
 310 412 l 1,16,-1
 322 412 l 1,17,-1
 322 400 l 1,18,-1
 322 320 l 1,19,-1
 356 320 l 1,20,-1
 368 320 l 1,21,-1
 368 307 l 1,22,-1
 368 226 l 1,23,-1
 402 226 l 1,24,-1
 414 226 l 1,25,-1
 414 214 l 1,26,-1
 414 121 l 1,27,-1
 414 108 l 1,28,-1
 402 108 l 1,29,-1
 356 108 l 1,30,-1
 342 108 l 1,31,-1
 342 121 l 1,32,-1
 342 202 l 1,33,-1
 310 202 l 1,34,-1
 296 202 l 1,35,-1
 296 214 l 1,36,-1
 296 294 l 1,37,-1
 262 294 l 1,38,-1
 250 294 l 1,39,-1
 250 307 l 1,40,-1
 250 388 l 1,41,-1
 216 388 l 1,42,-1
 204 388 l 1,43,-1
 204 400 l 1,44,-1
 204 482 l 1,45,-1
 170 482 l 1,46,-1
 156 482 l 1,47,-1
 156 494 l 1,48,-1
 156 574 l 1,49,-1
 124 574 l 1,50,-1
 110 574 l 1,51,-1
 110 587 l 1,0,-1
EndSplineSet
Validated: 1
EndChar

StartChar: bracketright
Encoding: 93 93 63
Width: 525
Flags: W
LayerCount: 2
Fore
SplineSet
180 668 m 1,0,-1
 180 738 l 1,1,-1
 346 738 l 1,2,-1
 346 62 l 1,3,-1
 180 62 l 1,4,-1
 180 134 l 1,5,-1
 274 134 l 5,6,-1
 274 668 l 1,7,-1
 180 668 l 1,0,-1
EndSplineSet
Validated: 1
EndChar

StartChar: asciicircum
Encoding: 94 94 64
Width: 525
Flags: W
LayerCount: 2
Fore
SplineSet
392 552 m 1,0,-1
 438 552 l 1,1,-1
 438 482 l 1,2,-1
 368 482 l 1,3,-1
 368 528 l 1,4,-1
 320 528 l 1,5,-1
 320 574 l 1,6,-1
 274 574 l 1,7,-1
 274 620 l 1,8,-1
 252 620 l 1,9,-1
 252 574 l 1,10,-1
 206 574 l 1,11,-1
 206 528 l 1,12,-1
 158 528 l 1,13,-1
 158 482 l 1,14,-1
 88 482 l 1,15,-1
 88 552 l 1,16,-1
 134 552 l 1,17,-1
 134 600 l 1,18,-1
 180 600 l 1,19,-1
 180 646 l 1,20,-1
 226 646 l 1,21,-1
 226 692 l 1,22,-1
 298 692 l 1,23,-1
 298 646 l 1,24,-1
 346 646 l 1,25,-1
 346 600 l 1,26,-1
 392 600 l 1,27,-1
 392 552 l 1,0,-1
EndSplineSet
Validated: 1
EndChar

StartChar: underscore
Encoding: 95 95 65
Width: 525
Flags: W
LayerCount: 2
Fore
SplineSet
64 75 m 1,0,-1
 64 121 l 1,1,-1
 64 134 l 1,2,-1
 76 134 l 1,3,-1
 450 134 l 1,4,-1
 462 134 l 1,5,-1
 462 121 l 1,6,-1
 462 75 l 1,7,-1
 462 62 l 1,8,-1
 450 62 l 1,9,-1
 76 62 l 1,10,-1
 64 62 l 1,11,-1
 64 75 l 1,0,-1
EndSplineSet
Validated: 1
EndChar

StartChar: grave
Encoding: 96 96 66
Width: 525
Flags: W
LayerCount: 2
Fore
SplineSet
204 592 m 1,0,-1
 204 639 l 1,1,-1
 204 652 l 1,2,-1
 216 652 l 1,3,-1
 262 652 l 1,4,-1
 274 652 l 1,5,-1
 274 639 l 1,6,-1
 274 604 l 1,7,-1
 310 604 l 1,8,-1
 322 604 l 1,9,-1
 322 592 l 1,10,-1
 322 546 l 1,11,-1
 322 534 l 1,12,-1
 310 534 l 1,13,-1
 262 534 l 1,14,-1
 250 534 l 1,15,-1
 250 546 l 1,16,-1
 250 580 l 1,17,-1
 216 580 l 1,18,-1
 204 580 l 1,19,-1
 204 592 l 1,0,-1
EndSplineSet
Validated: 1
EndChar

StartChar: a
Encoding: 97 97 67
Width: 525
Flags: W
LayerCount: 2
Fore
SplineSet
180 382 m 1,0,-1
 180 186 l 1,1,-1
 248 186 l 1,2,-1
 248 220 l 1,3,-1
 248 232 l 1,4,-1
 262 232 l 1,5,-1
 296 232 l 1,6,-1
 296 266 l 1,7,-1
 296 278 l 1,8,-1
 308 278 l 1,9,-1
 342 278 l 1,10,-1
 342 382 l 1,11,-1
 180 382 l 1,0,-1
156 127 m 1,12,-1
 156 160 l 1,13,-1
 122 160 l 1,14,-1
 110 160 l 1,15,-1
 110 172 l 1,16,-1
 110 395 l 1,17,-1
 110 407 l 1,18,-1
 122 407 l 1,19,-1
 156 407 l 1,20,-1
 156 440 l 1,21,-1
 156 453 l 1,22,-1
 168 453 l 1,23,-1
 354 453 l 1,24,-1
 366 453 l 1,25,-1
 366 440 l 1,26,-1
 366 407 l 1,27,-1
 402 407 l 1,28,-1
 414 407 l 1,29,-1
 414 395 l 1,30,-1
 414 126 l 1,31,-1
 414 114 l 1,32,-1
 402 114 l 1,33,-1
 354 114 l 1,34,-1
 342 114 l 1,35,-1
 342 127 l 1,36,-1
 342 208 l 1,37,-1
 320 208 l 1,38,-1
 320 173 l 1,39,-1
 320 160 l 1,40,-1
 308 160 l 1,41,-1
 274 160 l 1,42,-1
 274 127 l 1,43,-1
 274 114 l 1,44,-1
 262 114 l 1,45,-1
 168 114 l 1,46,-1
 156 114 l 1,47,-1
 156 127 l 1,12,-1
EndSplineSet
Validated: 1
EndChar

StartChar: b
Encoding: 98 98 68
Width: 525
Flags: W
LayerCount: 2
Fore
SplineSet
378 186 m 1,0,-1
 378 394 l 1,1,-1
 192 394 l 1,2,-1
 192 346 l 1,3,-1
 144 346 l 1,4,-1
 144 186 l 1,5,-1
 378 186 l 1,0,-1
402 453 m 1,6,-1
 402 408 l 1,7,-1
 450 408 l 1,8,-1
 450 160 l 5,9,-1
 402 160 l 1,10,-1
 402 114 l 1,11,-1
 120 114 l 1,12,-1
 120 160 l 1,13,-1
 74 160 l 1,14,-1
 74 639 l 1,15,-1
 144 639 l 1,16,-1
 144 407 l 1,17,-1
 166 407 l 1,18,-1
 166 453 l 1,19,-1
 402 453 l 1,6,-1
EndSplineSet
Validated: 1
EndChar

StartChar: c
Encoding: 99 99 69
Width: 525
Flags: W
LayerCount: 2
Fore
SplineSet
342 334 m 1,0,-1
 342 382 l 1,1,-1
 180 382 l 1,2,-1
 180 186 l 1,3,-1
 342 186 l 1,4,-1
 342 232 l 1,5,-1
 414 232 l 1,6,-1
 414 160 l 1,7,-1
 366 160 l 1,8,-1
 366 114 l 1,9,-1
 156 114 l 1,10,-1
 156 160 l 1,11,-1
 110 160 l 1,12,-1
 110 407 l 1,13,-1
 156 407 l 1,14,-1
 156 453 l 1,15,-1
 366 453 l 1,16,-1
 366 411 l 5,17,-1
 414 411 l 1,18,-1
 414 334 l 1,19,-1
 342 334 l 1,0,-1
EndSplineSet
Validated: 1
EndChar

StartChar: d
Encoding: 100 100 70
Width: 525
Flags: W
LayerCount: 2
Fore
SplineSet
146 186 m 1,0,-1
 378 186 l 1,1,-1
 378 348 l 1,2,-1
 332 348 l 1,3,-1
 332 394 l 1,4,-1
 146 394 l 1,5,-1
 146 186 l 1,0,-1
450 160 m 5,6,-1
 404 160 l 1,7,-1
 404 114 l 1,8,-1
 120 114 l 1,9,-1
 120 160 l 1,10,-1
 74 160 l 1,11,-1
 74 407 l 1,12,-1
 120 407 l 1,13,-1
 120 453 l 1,14,-1
 356 453 l 1,15,-1
 356 406 l 1,16,-1
 378 406 l 1,17,-1
 378 639 l 1,18,-1
 450 639 l 1,19,-1
 450 160 l 5,6,-1
EndSplineSet
Validated: 1
EndChar

StartChar: e
Encoding: 101 101 71
Width: 525
Flags: W
LayerCount: 2
Fore
SplineSet
90 408 m 1,0,-1
 136 408 l 1,1,-1
 136 453 l 1,2,-1
 387 453 l 1,3,-1
 387 410 l 1,4,-1
 435 410 l 1,5,-1
 435 300 l 1,6,-1
 387 300 l 1,7,-1
 387 254 l 1,8,-1
 160 254 l 1,9,-1
 160 186 l 1,10,-1
 363 186 l 1,11,-1
 363 232 l 1,12,-1
 435 232 l 1,13,-1
 435 160 l 1,14,-1
 387 160 l 1,15,-1
 387 114 l 1,16,-1
 136 114 l 1,17,-1
 136 160 l 1,18,-1
 90 160 l 1,19,-1
 90 408 l 1,0,-1
363 394 m 1,20,-1
 160 394 l 1,21,-1
 160 326 l 1,22,-1
 363 326 l 1,23,-1
 363 394 l 1,20,-1
EndSplineSet
Validated: 1
EndChar

StartChar: f
Encoding: 102 102 72
Width: 525
Flags: W
LayerCount: 2
Fore
SplineSet
214 592 m 1,0,-1
 250 592 l 1,1,-1
 250 626 l 1,2,-1
 250 639 l 1,3,-1
 262 639 l 1,4,-1
 356 639 l 1,5,-1
 368 639 l 1,6,-1
 368 626 l 1,7,-1
 368 580 l 1,8,-1
 368 567 l 1,9,-1
 356 567 l 1,10,-1
 274 567 l 1,11,-1
 274 453 l 1,12,-1
 356 453 l 1,13,-1
 368 453 l 1,14,-1
 368 440 l 1,15,-1
 368 394 l 1,16,-1
 368 382 l 1,17,-1
 356 382 l 1,18,-1
 274 382 l 1,19,-1
 274 126 l 1,20,-1
 274 114 l 1,21,-1
 262 114 l 1,22,-1
 214 114 l 1,23,-1
 202 114 l 1,24,-1
 202 126 l 1,25,-1
 202 382 l 1,26,-1
 168 382 l 1,27,-1
 156 382 l 1,28,-1
 156 394 l 1,29,-1
 156 440 l 1,30,-1
 156 453 l 1,31,-1
 168 453 l 1,32,-1
 202 453 l 1,33,-1
 202 580 l 1,34,-1
 202 592 l 1,35,-1
 214 592 l 1,0,-1
EndSplineSet
Validated: 1
EndChar

StartChar: g
Encoding: 103 103 73
Width: 525
Flags: W
LayerCount: 2
Fore
SplineSet
342 208 m 1,0,-1
 320 208 l 1,1,-1
 320 173 l 1,2,-1
 320 160 l 1,3,-1
 308 160 l 1,4,-1
 168 160 l 1,5,-1
 156 160 l 1,6,-1
 156 173 l 1,7,-1
 156 208 l 1,8,-1
 122 208 l 1,9,-1
 110 208 l 1,10,-1
 110 219 l 1,11,-1
 110 395 l 1,12,-1
 110 407 l 1,13,-1
 122 407 l 1,14,-1
 156 407 l 1,15,-1
 156 440 l 1,16,-1
 156 453 l 1,17,-1
 168 453 l 1,18,-1
 354 453 l 1,19,-1
 366 453 l 1,20,-1
 366 440 l 1,21,-1
 366 407 l 1,22,-1
 402 407 l 1,23,-1
 414 407 l 1,24,-1
 414 395 l 1,25,-1
 414 46 l 1,26,-1
 414 34 l 1,27,-1
 402 34 l 1,28,-1
 366 34 l 1,29,-1
 366 0 l 1,30,-1
 366 -12 l 1,31,-1
 354 -12 l 1,32,-1
 168 -12 l 1,33,-1
 156 -12 l 1,34,-1
 156 0 l 1,35,-1
 156 34 l 1,36,-1
 122 34 l 1,37,-1
 110 34 l 1,38,-1
 110 46 l 1,39,-1
 110 92 l 1,40,-1
 110 105 l 1,41,-1
 122 105 l 1,42,-1
 168 105 l 1,43,-1
 180 105 l 1,44,-1
 180 92 l 1,45,-1
 180 59 l 1,46,-1
 342 59 l 1,47,-1
 342 208 l 1,0,-1
180 232 m 1,48,-1
 296 232 l 1,49,-1
 296 266 l 1,50,-1
 296 278 l 1,51,-1
 308 278 l 1,52,-1
 342 278 l 1,53,-1
 342 382 l 1,54,-1
 180 382 l 1,55,-1
 180 232 l 1,48,-1
EndSplineSet
Validated: 1
EndChar

StartChar: h
Encoding: 104 104 74
Width: 525
Flags: W
LayerCount: 2
Fore
SplineSet
184 346 m 1,0,-1
 148 346 l 1,1,-1
 156 127 l 1,2,-1
 156 114 l 1,3,-1
 144 114 l 1,4,-1
 98 114 l 1,5,-1
 86 114 l 1,6,-1
 86 126 l 1,7,-1
 82 254 l 2,8,9
 78 392 78 392 78 502 c 2,10,-1
 78 626 l 1,11,-1
 78 639 l 1,12,-1
 90 639 l 1,13,-1
 136 639 l 1,14,-1
 148 639 l 1,15,-1
 148 626 l 1,16,-1
 148 407 l 1,17,-1
 170 407 l 1,18,-1
 170 440 l 1,19,-1
 170 453 l 1,20,-1
 184 453 l 1,21,-1
 394 453 l 1,22,-1
 406 453 l 1,23,-1
 406 440 l 1,24,-1
 406 417 l 2,25,26
 406 415 406 415 407 412.5 c 128,-1,27
 408 410 408 410 408 409 c 2,28,-1
 416 408 l 1,29,-1
 434 408 l 1,30,-1
 446 408 l 1,31,-1
 446 396 l 1,32,-1
 446 127 l 1,33,-1
 446 114 l 1,34,-1
 434 114 l 1,35,-1
 394 114 l 1,36,-1
 382 114 l 1,37,-1
 382 127 l 1,38,-1
 382 394 l 1,39,-1
 196 394 l 1,40,-1
 196 359 l 1,41,-1
 196 346 l 1,42,-1
 184 346 l 1,0,-1
EndSplineSet
Validated: 1
EndChar

StartChar: i
Encoding: 105 105 75
Width: 525
Flags: W
LayerCount: 2
Fore
SplineSet
223 114 m 1,0,-1
 161 114 l 1,1,-1
 161 149 l 1,2,-1
 223 149 l 1,3,-1
 223 413 l 1,4,-1
 161 413 l 1,5,-1
 161 453 l 1,6,-1
 223 453 l 1,7,-1
 302 453 l 1,8,-1
 302 149 l 1,9,-1
 364 149 l 1,10,-1
 364 114 l 1,11,-1
 302 114 l 1,12,-1
 223 114 l 1,0,-1
223 521 m 1,13,-1
 223 639 l 1,14,-1
 302 639 l 1,15,-1
 302 521 l 1,16,-1
 223 521 l 1,13,-1
  Spiro
    223 521 v
    223 639 v
    302 639 v
    302 521 v
    0 0 z
  EndSpiro
EndSplineSet
Validated: 1
EndChar

StartChar: j
Encoding: 106 106 76
Width: 525
Flags: W
LayerCount: 2
Fore
SplineSet
322 521 m 1,0,-1
 322 534 l 1,1,-1
 322 626 l 1,2,-1
 322 639 l 1,3,-1
 334 639 l 1,4,-1
 380 639 l 1,5,-1
 392 639 l 1,6,-1
 392 626 l 1,7,-1
 392 534 l 1,8,-1
 392 521 l 1,9,-1
 380 521 l 1,10,-1
 334 521 l 1,11,-1
 322 521 l 1,0,-1
180 0 m 1,12,-1
 180 34 l 1,13,-1
 146 34 l 1,14,-1
 134 34 l 1,15,-1
 134 46 l 1,16,-1
 134 140 l 1,17,-1
 134 152 l 1,18,-1
 146 152 l 1,19,-1
 192 152 l 1,20,-1
 206 152 l 1,21,-1
 206 140 l 1,22,-1
 206 59 l 1,23,-1
 322 59 l 1,24,-1
 322 440 l 1,25,-1
 322 453 l 1,26,-1
 334 453 l 1,27,-1
 380 453 l 1,28,-1
 392 453 l 1,29,-1
 392 440 l 1,30,-1
 392 46 l 1,31,-1
 392 34 l 1,32,-1
 380 34 l 1,33,-1
 346 34 l 1,34,-1
 346 0 l 1,35,-1
 346 -12 l 1,36,-1
 334 -12 l 1,37,-1
 192 -12 l 1,38,-1
 180 -12 l 1,39,-1
 180 0 l 1,12,-1
EndSplineSet
Validated: 1
EndChar

StartChar: k
Encoding: 107 107 77
Width: 525
Flags: W
LayerCount: 2
Fore
SplineSet
134 114 m 1,0,-1
 134 127 l 1,1,-1
 134 626 l 1,2,-1
 134 639 l 1,3,-1
 146 639 l 1,4,-1
 192 639 l 1,5,-1
 206 639 l 1,6,-1
 206 626 l 1,7,-1
 206 407 l 1,8,-1
 274 407 l 1,9,-1
 274 440 l 1,10,-1
 274 453 l 1,11,-1
 286 453 l 1,12,-1
 380 453 l 1,13,-1
 392 453 l 1,14,-1
 392 440 l 1,15,-1
 392 399 l 1,16,-1
 392 388 l 1,17,-1
 380 388 l 1,18,-1
 300 388 l 1,19,-1
 300 326 l 1,20,-1
 334 326 l 1,21,-1
 346 326 l 1,22,-1
 346 313 l 1,23,-1
 346 232 l 1,24,-1
 380 232 l 1,25,-1
 392 232 l 1,26,-1
 392 220 l 1,27,-1
 392 127 l 1,28,-1
 392 114 l 1,29,-1
 380 114 l 1,30,-1
 334 114 l 1,31,-1
 322 114 l 1,32,-1
 322 127 l 1,33,-1
 322 208 l 1,34,-1
 286 208 l 1,35,-1
 274 208 l 1,36,-1
 274 220 l 1,37,-1
 274 300 l 1,38,-1
 240 300 l 1,39,-1
 228 300 l 1,40,-1
 228 313 l 1,41,-1
 228 346 l 1,42,-1
 206 346 l 1,43,-1
 206 127 l 1,44,-1
 206 114 l 1,45,-1
 192 114 l 1,46,-1
 146 114 l 1,47,-1
 134 114 l 1,0,-1
EndSplineSet
Validated: 1
EndChar

StartChar: l
Encoding: 108 108 78
Width: 525
Flags: W
LayerCount: 2
Fore
SplineSet
136 567 m 1,0,-1
 136 639 l 1,1,-1
 274 639 l 1,2,-1
 274 186 l 1,3,-1
 316 186 l 1,4,-1
 316 232 l 1,5,-1
 388 232 l 1,6,-1
 388 160 l 1,7,-1
 340 160 l 1,8,-1
 340 114 l 1,9,-1
 202 114 l 1,10,-1
 202 567 l 1,11,-1
 136 567 l 1,0,-1
EndSplineSet
Validated: 1
EndChar

StartChar: m
Encoding: 109 109 79
Width: 525
Flags: W
LayerCount: 2
Fore
SplineSet
455 459 m 1,0,-1
 455 424 l 1,1,-1
 490 424 l 1,2,-1
 490 108 l 1,3,-1
 420 108 l 1,4,-1
 420 389 l 1,5,-1
 304 389 l 1,6,-1
 304 108 l 1,7,-1
 224 108 l 1,8,-1
 224 389 l 1,9,-1
 105 389 l 1,10,-1
 105 108 l 1,11,-1
 35 108 l 1,12,-1
 35 424 l 1,13,-1
 70 424 l 1,14,-1
 70 459 l 1,15,-1
 252 459 l 1,16,-1
 252 424 l 1,17,-1
 274 424 l 1,18,-1
 274 459 l 1,19,-1
 455 459 l 1,0,-1
EndSplineSet
Validated: 1
EndChar

StartChar: n
Encoding: 110 110 80
Width: 525
Flags: W
LayerCount: 2
Fore
SplineSet
90 411 m 1,0,-1
 125 411 l 1,1,-1
 125 446 l 1,2,-1
 400 446 l 1,3,-1
 400 411 l 1,4,-1
 435 411 l 5,5,-1
 435 115 l 1,6,-1
 363 115 l 1,7,-1
 363 368 l 1,8,-1
 160 368 l 1,9,-1
 160 114 l 1,10,-1
 90 114 l 1,11,-1
 90 411 l 1,0,-1
EndSplineSet
Validated: 1
EndChar

StartChar: o
Encoding: 111 111 81
Width: 525
Flags: W
LayerCount: 2
Fore
SplineSet
180 375 m 1,0,-1
 180 180 l 1,1,-1
 342 180 l 1,2,-1
 342 375 l 1,3,-1
 180 375 l 1,0,-1
156 121 m 1,4,-1
 156 156 l 1,5,-1
 122 156 l 1,6,-1
 110 156 l 1,7,-1
 110 167 l 1,8,-1
 110 388 l 1,9,-1
 110 400 l 1,10,-1
 122 400 l 1,11,-1
 156 400 l 1,12,-1
 156 434 l 1,13,-1
 156 446 l 1,14,-1
 168 446 l 1,15,-1
 354 446 l 1,16,-1
 366 446 l 1,17,-1
 366 434 l 1,18,-1
 366 400 l 1,19,-1
 402 400 l 1,20,-1
 414 400 l 1,21,-1
 414 388 l 1,22,-1
 414 167 l 1,23,-1
 414 156 l 1,24,-1
 402 156 l 1,25,-1
 366 156 l 1,26,-1
 366 121 l 1,27,-1
 366 108 l 1,28,-1
 354 108 l 1,29,-1
 168 108 l 1,30,-1
 156 108 l 1,31,-1
 156 121 l 1,4,-1
EndSplineSet
Validated: 1
EndChar

StartChar: p
Encoding: 112 112 82
Width: 525
Flags: W
LayerCount: 2
Fore
SplineSet
180 180 m 1,0,-1
 342 180 l 1,1,-1
 342 375 l 1,2,-1
 180 375 l 1,3,-1
 180 180 l 1,0,-1
402 156 m 1,4,-1
 366 156 l 1,5,-1
 366 121 l 1,6,-1
 366 108 l 1,7,-1
 354 108 l 1,8,-1
 180 108 l 1,9,-1
 180 -6 l 1,10,-1
 180 -18 l 1,11,-1
 168 -18 l 1,12,-1
 122 -18 l 1,13,-1
 110 -18 l 1,14,-1
 110 -6 l 1,15,-1
 110 388 l 1,16,-1
 110 400 l 1,17,-1
 122 400 l 1,18,-1
 156 400 l 1,19,-1
 156 434 l 1,20,-1
 156 446 l 1,21,-1
 168 446 l 1,22,-1
 354 446 l 1,23,-1
 366 446 l 1,24,-1
 366 434 l 1,25,-1
 366 400 l 1,26,-1
 402 400 l 1,27,-1
 414 400 l 1,28,-1
 414 388 l 1,29,-1
 414 167 l 1,30,-1
 414 156 l 1,31,-1
 402 156 l 1,4,-1
EndSplineSet
Validated: 1
EndChar

StartChar: q
Encoding: 113 113 83
Width: 525
Flags: W
LayerCount: 2
Fore
SplineSet
96 121 m 1,0,-1
 96 156 l 1,1,-1
 64 156 l 1,2,-1
 50 156 l 1,3,-1
 50 167 l 1,4,-1
 50 388 l 1,5,-1
 50 400 l 1,6,-1
 64 400 l 1,7,-1
 96 400 l 1,8,-1
 96 434 l 1,9,-1
 96 446 l 1,10,-1
 110 446 l 1,11,-1
 316 446 l 1,12,-1
 332 446 l 1,13,-1
 332 434 l 1,14,-1
 332 400 l 1,15,-1
 368 400 l 1,16,-1
 380 400 l 1,17,-1
 380 388 l 1,18,-1
 380 53 l 1,19,-1
 402 53 l 1,20,-1
 402 88 l 1,21,-1
 402 100 l 1,22,-1
 414 100 l 1,23,-1
 462 100 l 1,24,-1
 474 100 l 1,25,-1
 474 88 l 1,26,-1
 474 40 l 1,27,-1
 474 28 l 1,28,-1
 462 28 l 1,29,-1
 426 28 l 1,30,-1
 426 -6 l 1,31,-1
 426 -18 l 1,32,-1
 414 -18 l 1,33,-1
 316 -18 l 1,34,-1
 302 -18 l 1,35,-1
 302 -6 l 1,36,-1
 302 108 l 1,37,-1
 110 108 l 1,38,-1
 96 108 l 1,39,-1
 96 121 l 1,0,-1
122 180 m 1,40,-1
 302 180 l 1,41,-1
 302 375 l 1,42,-1
 122 375 l 1,43,-1
 122 180 l 1,40,-1
EndSplineSet
Validated: 1
EndChar

StartChar: r
Encoding: 114 114 84
Width: 525
Flags: W
LayerCount: 2
Fore
SplineSet
85 400 m 1,0,-1
 131 400 l 1,1,-1
 131 446 l 1,2,-1
 392 446 l 1,3,-1
 392 400 l 1,4,-1
 440 400 l 1,5,-1
 440 328 l 1,6,-1
 368 328 l 1,7,-1
 368 375 l 1,8,-1
 155 375 l 1,9,-1
 155 115 l 1,10,-1
 85 115 l 1,11,-1
 85 400 l 1,0,-1
EndSplineSet
Validated: 1
EndChar

StartChar: s
Encoding: 115 115 85
Width: 525
Flags: W
LayerCount: 2
Fore
SplineSet
127 290 m 1,0,-1
 93 290 l 1,1,-1
 93 418 l 1,2,-1
 127 418 l 1,3,-1
 127 453 l 1,4,-1
 432 453 l 5,5,-1
 432 393 l 5,6,-1
 153 393 l 1,7,-1
 153 315 l 1,8,-1
 396 315 l 5,9,-1
 396 280 l 5,10,-1
 432 280 l 5,11,-1
 432 149 l 5,12,-1
 396 149 l 5,13,-1
 396 114 l 5,14,-1
 93 114 l 1,15,-1
 93 174 l 1,16,-1
 372 174 l 5,17,-1
 372 255 l 5,18,-1
 127 255 l 1,19,-1
 127 290 l 1,0,-1
EndSplineSet
Validated: 1
EndChar

StartChar: t
Encoding: 116 116 86
Width: 525
Flags: W
LayerCount: 2
Fore
SplineSet
94 453 m 1,0,-1
 227 453 l 1,1,-1
 227 567 l 1,2,-1
 297 567 l 1,3,-1
 297 453 l 1,4,-1
 429 453 l 1,5,-1
 429 382 l 1,6,-1
 297 382 l 1,7,-1
 297 186 l 1,8,-1
 359 186 l 1,9,-1
 359 232 l 1,10,-1
 431 232 l 1,11,-1
 431 155 l 1,12,-1
 383 155 l 1,13,-1
 383 114 l 1,14,-1
 227 114 l 1,15,-1
 227 382 l 1,16,-1
 94 382 l 1,17,-1
 94 453 l 1,0,-1
EndSplineSet
Validated: 1
EndChar

StartChar: u
Encoding: 117 117 87
Width: 525
Flags: WO
LayerCount: 2
Fore
SplineSet
95 150 m 1,0,-1
 95 441 l 1,1,-1
 165 441 l 1,2,-1
 165 174 l 1,3,-1
 358 174 l 1,4,-1
 358 441 l 1,5,-1
 430 441 l 1,6,-1
 430 150 l 1,7,-1
 382 150 l 1,8,-1
 382 102 l 1,9,-1
 141 102 l 1,10,-1
 141 150 l 1,11,-1
 95 150 l 1,0,-1
EndSplineSet
EndChar

StartChar: v
Encoding: 118 118 88
Width: 525
Flags: W
LayerCount: 2
Fore
SplineSet
74 374 m 1,0,-1
 74 385 l 1,1,-1
 74 428 l 1,2,-1
 74 441 l 1,3,-1
 88 441 l 1,4,-1
 134 441 l 1,5,-1
 146 441 l 1,6,-1
 146 428 l 1,7,-1
 146 397 l 1,8,-1
 180 397 l 1,9,-1
 192 397 l 1,10,-1
 192 386 l 1,11,-1
 192 314 l 1,12,-1
 234 314 l 1,13,-1
 248 314 l 1,14,-1
 248 301 l 1,15,-1
 248 220 l 1,16,-1
 276 220 l 1,17,-1
 276 301 l 1,18,-1
 276 314 l 1,19,-1
 292 314 l 1,20,-1
 332 314 l 1,21,-1
 332 386 l 1,22,-1
 332 397 l 1,23,-1
 344 397 l 1,24,-1
 378 397 l 1,25,-1
 378 428 l 1,26,-1
 378 441 l 1,27,-1
 392 441 l 1,28,-1
 438 441 l 1,29,-1
 450 441 l 1,30,-1
 450 428 l 1,31,-1
 450 385 l 1,32,-1
 450 374 l 1,33,-1
 438 374 l 1,34,-1
 404 374 l 1,35,-1
 404 300 l 1,36,-1
 404 288 l 1,37,-1
 392 288 l 1,38,-1
 356 288 l 1,39,-1
 356 208 l 1,40,-1
 356 196 l 1,41,-1
 344 196 l 1,42,-1
 308 196 l 1,43,-1
 308 115 l 1,44,-1
 308 102 l 1,45,-1
 292 102 l 1,46,-1
 234 102 l 1,47,-1
 218 102 l 1,48,-1
 218 115 l 1,49,-1
 218 196 l 1,50,-1
 180 196 l 1,51,-1
 168 196 l 1,52,-1
 168 208 l 1,53,-1
 168 288 l 1,54,-1
 134 288 l 1,55,-1
 120 288 l 1,56,-1
 120 300 l 1,57,-1
 120 374 l 1,58,-1
 88 374 l 1,59,-1
 74 374 l 1,0,-1
EndSplineSet
Validated: 1
EndChar

StartChar: w
Encoding: 119 119 89
Width: 525
Flags: W
LayerCount: 2
Fore
SplineSet
74 150 m 1,0,-1
 74 161 l 1,1,-1
 74 428 l 1,2,-1
 74 441 l 1,3,-1
 88 441 l 1,4,-1
 134 441 l 1,5,-1
 146 441 l 1,6,-1
 146 428 l 1,7,-1
 146 174 l 1,8,-1
 218 174 l 1,9,-1
 218 428 l 1,10,-1
 218 441 l 1,11,-1
 234 441 l 1,12,-1
 292 441 l 1,13,-1
 308 441 l 1,14,-1
 308 428 l 1,15,-1
 308 174 l 1,16,-1
 378 174 l 1,17,-1
 378 428 l 1,18,-1
 378 441 l 1,19,-1
 392 441 l 1,20,-1
 438 441 l 1,21,-1
 450 441 l 1,22,-1
 450 428 l 1,23,-1
 450 161 l 1,24,-1
 450 150 l 1,25,-1
 438 150 l 1,26,-1
 404 150 l 1,27,-1
 404 115 l 1,28,-1
 404 102 l 1,29,-1
 392 102 l 1,30,-1
 292 102 l 1,31,-1
 276 102 l 1,32,-1
 276 115 l 1,33,-1
 276 150 l 1,34,-1
 248 150 l 1,35,-1
 248 115 l 1,36,-1
 248 102 l 1,37,-1
 234 102 l 1,38,-1
 134 102 l 1,39,-1
 120 102 l 1,40,-1
 120 115 l 1,41,-1
 120 150 l 1,42,-1
 88 150 l 1,43,-1
 74 150 l 1,0,-1
EndSplineSet
Validated: 1
EndChar

StartChar: x
Encoding: 120 120 90
Width: 525
Flags: W
LayerCount: 2
Fore
SplineSet
74 374 m 1,0,-1
 74 385 l 1,1,-1
 74 428 l 1,2,-1
 74 441 l 1,3,-1
 88 441 l 1,4,-1
 134 441 l 1,5,-1
 146 441 l 1,6,-1
 146 428 l 1,7,-1
 146 397 l 1,8,-1
 180 397 l 1,9,-1
 192 397 l 1,10,-1
 192 386 l 1,11,-1
 192 356 l 1,12,-1
 234 356 l 1,13,-1
 248 356 l 1,14,-1
 248 345 l 1,15,-1
 248 314 l 1,16,-1
 276 314 l 1,17,-1
 276 345 l 1,18,-1
 276 356 l 1,19,-1
 292 356 l 1,20,-1
 332 356 l 1,21,-1
 332 386 l 1,22,-1
 332 397 l 1,23,-1
 344 397 l 1,24,-1
 378 397 l 1,25,-1
 378 428 l 1,26,-1
 378 441 l 1,27,-1
 392 441 l 1,28,-1
 438 441 l 1,29,-1
 450 441 l 1,30,-1
 450 428 l 1,31,-1
 450 385 l 1,32,-1
 450 374 l 1,33,-1
 438 374 l 1,34,-1
 404 374 l 1,35,-1
 404 343 l 1,36,-1
 404 332 l 1,37,-1
 392 332 l 1,38,-1
 356 332 l 1,39,-1
 356 300 l 1,40,-1
 356 288 l 1,41,-1
 344 288 l 1,42,-1
 308 288 l 1,43,-1
 308 268 l 1,44,-1
 344 268 l 1,45,-1
 356 268 l 1,46,-1
 356 255 l 1,47,-1
 356 220 l 1,48,-1
 392 220 l 1,49,-1
 404 220 l 1,50,-1
 404 208 l 1,51,-1
 404 174 l 1,52,-1
 438 174 l 1,53,-1
 450 174 l 1,54,-1
 450 162 l 1,55,-1
 450 115 l 1,56,-1
 450 102 l 1,57,-1
 438 102 l 1,58,-1
 392 102 l 1,59,-1
 378 102 l 1,60,-1
 378 115 l 1,61,-1
 378 150 l 1,62,-1
 344 150 l 1,63,-1
 332 150 l 1,64,-1
 332 162 l 1,65,-1
 332 196 l 1,66,-1
 292 196 l 1,67,-1
 276 196 l 1,68,-1
 276 208 l 1,69,-1
 276 242 l 1,70,-1
 248 242 l 1,71,-1
 248 208 l 1,72,-1
 248 196 l 1,73,-1
 234 196 l 1,74,-1
 192 196 l 1,75,-1
 192 162 l 1,76,-1
 192 150 l 1,77,-1
 180 150 l 1,78,-1
 146 150 l 1,79,-1
 146 115 l 1,80,-1
 146 102 l 1,81,-1
 134 102 l 1,82,-1
 88 102 l 1,83,-1
 74 102 l 1,84,-1
 74 115 l 1,85,-1
 74 162 l 1,86,-1
 74 174 l 1,87,-1
 88 174 l 1,88,-1
 120 174 l 1,89,-1
 120 208 l 1,90,-1
 120 220 l 1,91,-1
 134 220 l 1,92,-1
 168 220 l 1,93,-1
 168 255 l 1,94,-1
 168 268 l 1,95,-1
 180 268 l 1,96,-1
 218 268 l 1,97,-1
 218 288 l 1,98,-1
 180 288 l 1,99,-1
 168 288 l 1,100,-1
 168 300 l 1,101,-1
 168 332 l 1,102,-1
 134 332 l 1,103,-1
 120 332 l 1,104,-1
 120 343 l 1,105,-1
 120 374 l 1,106,-1
 88 374 l 1,107,-1
 74 374 l 1,0,-1
EndSplineSet
Validated: 1025
EndChar

StartChar: y
Encoding: 121 121 91
Width: 525
Flags: W
LayerCount: 2
Fore
SplineSet
110 150 m 1,0,-1
 110 161 l 1,1,-1
 110 428 l 1,2,-1
 110 441 l 1,3,-1
 122 441 l 1,4,-1
 168 441 l 1,5,-1
 180 441 l 1,6,-1
 180 428 l 1,7,-1
 180 174 l 1,8,-1
 342 174 l 1,9,-1
 342 428 l 1,10,-1
 342 441 l 1,11,-1
 354 441 l 1,12,-1
 402 441 l 1,13,-1
 414 441 l 1,14,-1
 414 428 l 1,15,-1
 414 35 l 1,16,-1
 414 23 l 1,17,-1
 402 23 l 1,18,-1
 366 23 l 1,19,-1
 366 -12 l 1,20,-1
 366 -25 l 1,21,-1
 354 -25 l 1,22,-1
 168 -25 l 1,23,-1
 156 -25 l 1,24,-1
 156 -12 l 1,25,-1
 156 23 l 1,26,-1
 122 23 l 1,27,-1
 110 23 l 1,28,-1
 110 36 l 1,29,-1
 110 82 l 1,30,-1
 110 94 l 1,31,-1
 122 94 l 1,32,-1
 168 94 l 1,33,-1
 180 94 l 1,34,-1
 180 82 l 1,35,-1
 180 48 l 1,36,-1
 342 48 l 1,37,-1
 342 102 l 1,38,-1
 168 102 l 1,39,-1
 156 102 l 1,40,-1
 156 115 l 1,41,-1
 156 150 l 1,42,-1
 122 150 l 1,43,-1
 110 150 l 1,0,-1
EndSplineSet
Validated: 1
EndChar

StartChar: z
Encoding: 122 122 92
Width: 525
Flags: W
LayerCount: 2
Fore
SplineSet
110 375 m 1,0,-1
 110 388 l 1,1,-1
 110 434 l 1,2,-1
 110 446 l 1,3,-1
 122 446 l 1,4,-1
 402 446 l 1,5,-1
 414 446 l 1,6,-1
 414 434 l 1,7,-1
 414 348 l 1,8,-1
 414 337 l 1,9,-1
 402 337 l 1,10,-1
 366 337 l 1,11,-1
 366 306 l 1,12,-1
 366 294 l 1,13,-1
 354 294 l 1,14,-1
 320 294 l 1,15,-1
 320 261 l 1,16,-1
 320 248 l 1,17,-1
 308 248 l 1,18,-1
 228 248 l 1,19,-1
 228 214 l 1,20,-1
 228 202 l 1,21,-1
 216 202 l 1,22,-1
 180 202 l 1,23,-1
 180 180 l 1,24,-1
 402 180 l 1,25,-1
 414 180 l 1,26,-1
 414 168 l 1,27,-1
 414 121 l 1,28,-1
 414 108 l 1,29,-1
 402 108 l 1,30,-1
 122 108 l 1,31,-1
 110 108 l 1,32,-1
 110 121 l 1,33,-1
 110 214 l 1,34,-1
 110 226 l 1,35,-1
 122 226 l 1,36,-1
 156 226 l 1,37,-1
 156 261 l 1,38,-1
 156 274 l 1,39,-1
 168 274 l 1,40,-1
 202 274 l 1,41,-1
 202 307 l 1,42,-1
 202 320 l 1,43,-1
 216 320 l 1,44,-1
 296 320 l 1,45,-1
 296 347 l 1,46,-1
 296 357 l 1,47,-1
 308 357 l 1,48,-1
 342 357 l 1,49,-1
 342 375 l 1,50,-1
 122 375 l 1,51,-1
 110 375 l 1,0,-1
EndSplineSet
Validated: 1
EndChar

StartChar: braceleft
Encoding: 123 123 93
Width: 525
Flags: W
LayerCount: 2
Fore
SplineSet
274 646 m 1,0,-1
 274 680 l 1,1,-1
 274 692 l 1,2,-1
 286 692 l 1,3,-1
 380 692 l 1,4,-1
 392 692 l 1,5,-1
 392 680 l 1,6,-1
 392 633 l 1,7,-1
 392 620 l 1,8,-1
 380 620 l 1,9,-1
 298 620 l 1,10,-1
 298 400 l 1,11,-1
 298 388 l 1,12,-1
 286 388 l 1,13,-1
 204 388 l 1,14,-1
 204 320 l 1,15,-1
 286 320 l 1,16,-1
 298 320 l 1,17,-1
 298 307 l 1,18,-1
 298 88 l 1,19,-1
 380 88 l 1,20,-1
 392 88 l 1,21,-1
 392 75 l 1,22,-1
 392 28 l 1,23,-1
 392 16 l 1,24,-1
 380 16 l 1,25,-1
 286 16 l 1,26,-1
 274 16 l 1,27,-1
 274 28 l 1,28,-1
 274 51 l 1,29,-1
 274 62 l 2,30,31
 272 62 272 62 268 62 c 0,32,33
 266 62 266 62 264 62 c 0,34,35
 256 62 256 62 250 65 c 0,36,37
 244 68 244 68 238 74 c 0,38,39
 234 80 234 80 232 87 c 0,40,41
 230 96 230 96 228 118 c 0,42,43
 228 140 228 140 228 181 c 2,44,-1
 228 248 l 1,45,-1
 192 248 l 1,46,-1
 180 248 l 1,47,-1
 180 261 l 1,48,-1
 180 294 l 1,49,-1
 146 294 l 1,50,-1
 134 294 l 1,51,-1
 134 307 l 1,52,-1
 134 400 l 1,53,-1
 134 412 l 1,54,-1
 146 412 l 1,55,-1
 180 412 l 1,56,-1
 180 446 l 1,57,-1
 180 458 l 1,58,-1
 192 458 l 1,59,-1
 228 458 l 1,60,-1
 228 633 l 1,61,-1
 228 646 l 1,62,-1
 240 646 l 1,63,-1
 274 646 l 1,0,-1
EndSplineSet
Validated: 1
EndChar

StartChar: bar
Encoding: 124 124 94
Width: 525
Flags: W
LayerCount: 2
Fore
SplineSet
226 24 m 1,0,-1
 226 679 l 1,1,-1
 226 692 l 1,2,-1
 240 692 l 1,3,-1
 286 692 l 1,4,-1
 298 692 l 1,5,-1
 298 679 l 1,6,-1
 298 24 l 1,7,-1
 298 12 l 1,8,-1
 286 12 l 1,9,-1
 240 12 l 1,10,-1
 226 12 l 1,11,-1
 226 24 l 1,0,-1
EndSplineSet
Validated: 1
EndChar

StartChar: braceright
Encoding: 125 125 95
Width: 525
Flags: W
LayerCount: 2
Fore
SplineSet
132 632 m 1,0,-1
 132 679 l 1,1,-1
 132 692 l 1,2,-1
 146 692 l 1,3,-1
 240 692 l 1,4,-1
 252 692 l 1,5,-1
 252 679 l 1,6,-1
 252 644 l 1,7,-1
 286 644 l 1,8,-1
 298 644 l 1,9,-1
 298 632 l 1,10,-1
 298 456 l 1,11,-1
 334 456 l 1,12,-1
 346 456 l 1,13,-1
 346 444 l 1,14,-1
 346 410 l 1,15,-1
 380 410 l 1,16,-1
 392 410 l 1,17,-1
 392 398 l 1,18,-1
 392 304 l 1,19,-1
 392 292 l 1,20,-1
 380 292 l 1,21,-1
 346 292 l 1,22,-1
 346 257 l 1,23,-1
 346 244 l 1,24,-1
 334 244 l 1,25,-1
 298 244 l 1,26,-1
 298 71 l 1,27,-1
 298 58 l 1,28,-1
 286 58 l 1,29,-1
 252 58 l 1,30,-1
 252 24 l 1,31,-1
 252 12 l 1,32,-1
 240 12 l 1,33,-1
 146 12 l 1,34,-1
 132 12 l 1,35,-1
 132 24 l 1,36,-1
 132 71 l 1,37,-1
 132 84 l 1,38,-1
 146 84 l 1,39,-1
 226 84 l 1,40,-1
 226 304 l 1,41,-1
 226 316 l 1,42,-1
 240 316 l 1,43,-1
 320 316 l 1,44,-1
 320 386 l 1,45,-1
 240 386 l 1,46,-1
 226 386 l 1,47,-1
 226 398 l 1,48,-1
 226 620 l 1,49,-1
 146 620 l 1,50,-1
 132 620 l 1,51,-1
 132 632 l 1,0,-1
EndSplineSet
Validated: 1
EndChar

StartChar: asciitilde
Encoding: 126 126 96
Width: 525
Flags: W
LayerCount: 2
Fore
SplineSet
106 383 m 1,0,-1
 106 418 l 1,1,-1
 246 418 l 1,2,-1
 246 383 l 1,3,-1
 316 383 l 1,4,-1
 316 348 l 1,5,-1
 386 348 l 1,6,-1
 386 383 l 1,7,-1
 490 383 l 1,8,-1
 490 313 l 1,9,-1
 420 313 l 1,10,-1
 420 278 l 1,11,-1
 280 278 l 1,12,-1
 280 313 l 1,13,-1
 210 313 l 1,14,-1
 210 348 l 1,15,-1
 140 348 l 1,16,-1
 140 313 l 1,17,-1
 36 313 l 1,18,-1
 36 383 l 1,19,-1
 106 383 l 1,0,-1
EndSplineSet
Validated: 1
EndChar

StartChar: emdash
Encoding: 8212 8212 98
Width: 550
Flags: W
LayerCount: 2
Fore
SplineSet
30 384 m 1,0,-1
 520 384 l 1,1,-1
 520 313 l 1,2,-1
 30 313 l 1,3,-1
 30 384 l 1,0,-1
EndSplineSet
Validated: 1
EndChar
